<svg id="Hand-drawn_Icon_Set" data-name="Hand-drawn Icon Set" xmlns="http://www.w3.org/2000/svg" viewBox="0 0 2147.86 1661.14"><defs><style>.cls-1{fill:#231f20;}</style></defs><path class="cls-1" d="M1853.05,1819.72a12.07,12.07,0,0,0,5.88-11.16c4.81-1.8,7.5-6.51,8.28-11.85s-.68-11-5.76-13.1c1.35-8.28-7.64-17-15.93-15-3.94-6.92-14.62-12.62-21.54-8.63a12.83,12.83,0,0,0-20.07-2.28c-5-2-10.54-2.56-15.5,0a13.75,13.75,0,0,0-7.6,11.88c-4.92-.72-10.28,1.47-14.11,4.5-3,2.35-4.73,6.81-3.33,10.12-5.61,1.52-10.34,5.64-10.81,11.94a10.8,10.8,0,0,0,10.59,11.78,12.63,12.63,0,0,0,4.34,13.41c4.84,3.74,11.48,3.53,17.11,2a18.3,18.3,0,0,0,25,.42c8.28,6.86,21.5,7.86,26.63-2.78C1841.84,1822.25,1848,1823,1853.05,1819.72Zm-41.63-1.14a2.32,2.32,0,0,0-3.35,0,2.54,2.54,0,0,0-.93.6c-6.16,6.19-15.12,5.55-20.58-1.1-1.22-1.49-3-.8-3.75.52-3.37.9-7,1.28-10.34-.1a7.81,7.81,0,0,1-4.07-10.64,2.67,2.67,0,0,0-1.68-3.68,2.58,2.58,0,0,0-2.67-1.21c-4.8.81-7.47-4.26-6.12-8.33s5.83-6,9.92-6.07a2.45,2.45,0,0,0,2.4-2.75,2,2,0,0,0-1.13-2.74c-4.09-1.84,1.5-5.76,3.36-6.72,3-1.56,6.66-2.89,9.85-1.09,2.37,1.34,4.51-1.51,3.46-3.39a2.39,2.39,0,0,0,.07-.86c-.89-9.22,8.91-11.25,15.82-8.82.58,1.73,3.33,2.63,4.58.58a7.71,7.71,0,0,1,14,1.23,2.05,2.05,0,0,0,.58,1.88c.9,2.32,4.48,1.45,4.72-.93,2.61-2.47,7.55-.51,10.21.88a11.27,11.27,0,0,1,6,6.68,2.51,2.51,0,0,0,3.76,1.37c6-2.19,12.84,4.7,10.46,10.62a2,2,0,0,0,1.42,2.86,2.4,2.4,0,0,0,1.15.62c7.31,1.69,3.68,15.73-2.79,16.34a2.7,2.7,0,0,0-1.94,4.19c.73,3.93-2.46,7.14-6.12,8.16-4.23,1.18-8.76-.12-12.86-1.24a2.51,2.51,0,0,0-3,3.11C1828,1827.41,1816.84,1824.1,1811.42,1818.58Z" transform="translate(-185.06 -198.52)"/><path class="cls-1" d="M1860.47,1823.21A2.72,2.72,0,0,0,1857,1822c-5,2.21-9.38,7.19-7.94,13,1.27,5.16,7,7.66,11.9,7.41,5.44-.27,8.78-4.32,8.62-9.68S1866,1822.44,1860.47,1823.21Zm3.94,11.61c-.74,2.6-3.54,2.92-5.85,2.45-2.66-.54-5-2.07-4.72-5.08.29-2.59,2.35-4.24,4.53-5.37a2.43,2.43,0,0,0,2.78,1.31C1864.32,1827.45,1865,1832.73,1864.41,1834.82Z" transform="translate(-185.06 -198.52)"/><path class="cls-1" d="M1852.21,1844.44a2.48,2.48,0,0,0-.79-.11,2.74,2.74,0,0,0-.83.07,7.25,7.25,0,0,0-6.07,6.81,6.78,6.78,0,0,0,13.53.42A7.22,7.22,0,0,0,1852.21,1844.44Zm-1,8.42c-2.46-.13-1.86-3.48.24-3.53a2.19,2.19,0,0,1,1.64,2.12C1853,1852.49,1852.14,1852.91,1851.18,1852.86Z" transform="translate(-185.06 -198.52)"/><path id="Message_Bubble" data-name="Message Bubble" class="cls-1" d="M1333.58,1788.45c-7.44-10.33-23.37-15.79-35.53-16.88-13.41-.7-28,1.08-39.74,8.08-10.19,6.09-19.07,17.46-17.77,29.91s12.22,20.91,23.61,24.25c14.51,4.25,30.64,3.25,45.12-.66a10,10,0,0,1,6.7,11,2.6,2.6,0,0,0,1.48,2.83,2.43,2.43,0,0,0,3.51,1.29c9.09-5.16,12.94-14.89,11.94-25C1342.52,1814.5,1340.75,1798.39,1333.58,1788.45ZM1321,1842.19a15.1,15.1,0,0,0-9.45-13.52,2.25,2.25,0,0,0-2.4-.66c-12.52,3.54-25.89,4.63-38.72,2.16-11.32-2.18-24.35-9.06-25-22.09-.58-11.51,9.08-21.31,18.79-25.91,10.45-5,22.39-6.2,33.83-5.6,10.27.92,22.4,5.34,29.77,12.77,7.63,7.7,9.72,23.13,1.2,30.71a1.83,1.83,0,0,0-1.18,1.3,1.94,1.94,0,0,0,0,1.6C1328.69,1830.41,1326.77,1837.57,1321,1842.19Z" transform="translate(-185.06 -198.52)"/><g id="Watch"><path class="cls-1" d="M772.48,1806.13a20.42,20.42,0,0,0-2.68.74c-.77-1.73-1.55-3.46-2.32-5.2a2.52,2.52,0,0,0-3.42-.89,2.56,2.56,0,0,0-.9,3.42c1,2.22,2,4.45,3,6.68a2,2,0,0,0,1.2,1,2.74,2.74,0,0,0,2.76.15,18.85,18.85,0,0,1,3.7-1.12,2.5,2.5,0,0,0-1.33-4.82Z" transform="translate(-185.06 -198.52)"/><path class="cls-1" d="M817.24,1762.49c-2.88-3-7-2.5-10.25-.36-4.88,3.24-9,8.09-13.32,12.08a2.27,2.27,0,0,0-.75,1.39,2.34,2.34,0,0,0-1,.68c-4.89,5.38-10,10.45-15.39,15.33a2.43,2.43,0,0,0-.66.93,34.43,34.43,0,0,0-14.4-.74,2.06,2.06,0,0,0-1.72,2.72c-6.5,5.07-11.34,13.71-9.37,22a12.28,12.28,0,0,0,.84,2.34,211.85,211.85,0,0,1-28,27.27,2.08,2.08,0,0,0-.83,1.4,7.08,7.08,0,0,0-.35,9.18c2.61,3.41,7.51,3.63,11.21,2.1,5.61-2.32,10-8.18,14.21-12.33l16.71-16.51a2.23,2.23,0,0,0,.69-2.07,21.74,21.74,0,0,0,10.71-.39c9-3,14-13,12.53-22.24a2.12,2.12,0,0,0,.24-.2c5.53-5.63,11.23-11,17-16.38a2.17,2.17,0,0,0,.76-1.91,2.53,2.53,0,0,0,.75-.47C812.36,1781.3,825.11,1770.71,817.24,1762.49Zm-18.81,25.7q-2.65-3-5.54-5.67c.77-.82,1.54-1.63,2.3-2.46q2.87,2.91,5.8,5.76C800.13,1786.6,799.28,1787.39,798.43,1788.19Zm-53.89,54c-2.56,2.52-5.09,5.07-7.66,7.57a24.36,24.36,0,0,1-4.49,3.81l-2.15.93q-4.47,1.42-3.88-4a2.29,2.29,0,0,0,.76-1.27,212,212,0,0,0,27.14-26.37,19.82,19.82,0,0,0,6.11,3.7Zm28.12-19.14c-6.64,1.52-17.49-2.29-17.64-10.19-.12-6.85,4.75-13,10.47-16.2a2.55,2.55,0,0,0,.51-.36c7.44-.3,16.43,2.17,17.21,10.53C783.87,1813.94,779.91,1821.4,772.66,1823.06ZM786.23,1800a14.88,14.88,0,0,0-5.58-5.42q4.51-4.11,8.77-8.43c1.86,1.76,3.66,3.59,5.38,5.49Q790.45,1795.74,786.23,1800Zm17.94-18q-2.8-2.73-5.54-5.52l5.5-5.14c1.16-1.07,2.28-2.19,3.47-3.23,1.9-1.65,3.06-3.24,5.4-1.76C818.3,1769.64,808.14,1778.49,804.17,1781.94Z" transform="translate(-185.06 -198.52)"/><path class="cls-1" d="M752,1827.9c-3,0-3,5,0,5S755,1827.9,752,1827.9Z" transform="translate(-185.06 -198.52)"/><path class="cls-1" d="M745,1834.78c-3,0-3,5,0,5S748,1834.78,745,1834.78Z" transform="translate(-185.06 -198.52)"/></g><path id="Glasses" class="cls-1" d="M313.67,1799.36a2.44,2.44,0,0,0-3.12-1.65,2.29,2.29,0,0,0-1.75-.13l-.46.13a2.62,2.62,0,0,0-.56-.38c-11.75-6-24.12-12.13-36.78-16-4.45-1.36-9.64-1.74-13.41,1.51a8.29,8.29,0,0,0-1.9,10.39c1.45,2.87,5.77.34,4.32-2.53-2.1-4.16,3-5.55,5.73-5.41a23.24,23.24,0,0,1,6.62,1.8c3.91,1.41,7.78,3,11.62,4.61,5.91,2.49,11.73,5.19,17.47,8l-20.17,5.93a2.55,2.55,0,0,0-.88,4.36c0,1.4,0,3,.1,4.67a2.59,2.59,0,0,0-.94.37,14.65,14.65,0,0,1-7,2.39c-.23-1.26-.49-2.44-.75-3.46a2.27,2.27,0,0,0-1.35-1.6c.65-1.56,0-3.62-2.14-3.35a318.78,318.78,0,0,0-32.44,5.77,2.14,2.14,0,0,0-1.61,1.32q-9.59-3.77-19.26-7.31c-6.1-2.22-12.65-5.39-19.15-6.16-10.16-1.22-13.27,8.42-8.92,16.22,1.56,2.81,5.88.29,4.31-2.53-1.26-2.27-2.86-6.21.12-8.22,1.62-1.1,4.18-.54,5.93-.15,4,.9,8,2.64,11.83,4q12.6,4.5,25.05,9.43c-.46,5.47-.35,11.5,4,15.51s10.76,2.81,15.95,1.28c3.9-1.16,7.77-2.48,11.63-3.77,1.88-.63,3.77-1,5.08-2.62,1.94-2.31,2.44-5.87,2.3-9.43a19.92,19.92,0,0,0,7.94-2.43,10.83,10.83,0,0,0,2.69,5.53c4.08,4,11.14,1.73,15.65,0s12.07-3.53,14.48-8.29C316.53,1812,315.24,1804.67,313.67,1799.36Zm-46.88,29c-2,2.29-8.41,3.25-11.39,4.2-4.24,1.36-9.54,3.55-13.69.83-3.8-2.5-2.76-9.33-2.41-13a2.25,2.25,0,0,0-.2-1.22q13.82-3.12,27.86-5a2.41,2.41,0,0,0,.06,1.09C267.85,1818.56,269.26,1825.49,266.79,1828.38Zm43.14-15c-1,3.67-5.07,4.4-8.28,5.76-2.39,1-9.4,4.86-12.2,3.54-4.46-2.1-3.94-8.83-4.06-13l24-7.06C310.26,1806.07,310.87,1810.07,309.93,1813.39Z" transform="translate(-185.06 -198.52)"/><g id="Apple"><path class="cls-1" d="M1831.59,1276.47c-5.93-3.14-12.62-2.64-19-1.46a17.86,17.86,0,0,1,4.17-10.59c2-2.54-2.38-5-4.31-2.52a25.76,25.76,0,0,0-2.46,3.84c-3.49-5.54-10.5-9.22-16.6-11.8-1.67-.7-2.81.53-3,2a2.35,2.35,0,0,0-.34.67c-2.09,6.17-1.14,10.81,3.36,15.62.45.48.9.94,1.36,1.4a18.36,18.36,0,0,0-6.39,1.42c-5.15,2.22-8,7-8.38,12.46-.43,5.92,1.65,12.79,3.9,18.19s5.33,12.23,9.37,16.62c3.38,3.68,8,4.88,12.43,2.49,1.2-.63,2.4-2,3.7-2.36,2.32-.64,3.9.33,5.69,1.65a9.6,9.6,0,0,0,7.27,2c6.11-.85,9.6-6,11.77-11.32a79.28,79.28,0,0,0,5.81-22.7A15.29,15.29,0,0,0,1831.59,1276.47Zm-37.26-16.7c6.34,2.88,13.9,7.41,12.72,15a6,6,0,0,1-.85,0l-1.61-.29c-3-.9-5.62-3.65-7.64-5.85C1794.22,1265.69,1793.56,1263.15,1794.33,1259.77Zm38.45,43.21c-1.52,5.7-4.27,18.66-12.14,17.79-4.91-.54-6.58-5.82-12.2-3.51-2.19.91-4,2.93-6.25,3.54-3.76,1-6.17-2.7-7.79-5.57-3-5.25-5.94-10.72-7.58-16.55s-4.09-14.4,2.19-18.42c4-2.54,9-2.11,13.8-1.22a12.8,12.8,0,0,0,3.29.65l1.16.23a2.44,2.44,0,0,0,2.4.77l.9-.19.58.08a2,2,0,0,0,1.8-.57c6.17-1.22,12.91-1.91,18.15,2.08C1837.59,1287.06,1834.56,1296.29,1832.78,1303Z" transform="translate(-185.06 -198.52)"/><path class="cls-1" d="M1824.28,1288.86c1.41,1.58,1.35,3.92,1.2,5.9-.23,3.21,4.77,3.19,5,0,.25-3.43-.32-6.81-2.67-9.43C1825.67,1282.92,1822.14,1286.47,1824.28,1288.86Z" transform="translate(-185.06 -198.52)"/></g><g id="Magnifying_Glass" data-name="Magnifying Glass"><path class="cls-1" d="M1290.69,1258.75a19,19,0,0,0-13-4.28c-3.2.17-3.22,5.17,0,5a13.8,13.8,0,0,1,9.46,2.81C1289.66,1264.25,1293.22,1260.73,1290.69,1258.75Z" transform="translate(-185.06 -198.52)"/><path class="cls-1" d="M1333,1321.45a345.3,345.3,0,0,1-24.66-25.08,2.16,2.16,0,0,0-1.69-.8,2.75,2.75,0,0,0-2.79.51c-1,.77-1.94,1.58-2.87,2.4a32.92,32.92,0,0,0-4-3.83,28.41,28.41,0,0,0,8.55-29.22c-3.81-13.68-17.25-21.73-31-20h0A28.68,28.68,0,0,0,1259,1298c11,7.42,24.2,6.17,33.9-.19a34.47,34.47,0,0,1,4.44,4.19c-.48.5-1,1-1.41,1.52a2.67,2.67,0,0,0-.35.5,2.22,2.22,0,0,0-.27,3.62,230.85,230.85,0,0,1,25.75,26.2,2,2,0,0,0,2.73,1.07c4.45-1.7,6.05-5.68,9.12-8.93a2.36,2.36,0,0,0,.66-2A2.15,2.15,0,0,0,1333,1321.45Zm-81.61-45.29a23.94,23.94,0,0,1,23.11-25.75,2.79,2.79,0,0,0,.6-.09h.07c14.11-2.09,26.38,9.06,26.46,23.12.07,13.28-11.27,24.33-24.39,24.78C1264.36,1298.67,1252.49,1289.22,1251.37,1276.16Zm72.46,53.15a232.06,232.06,0,0,0-23.1-23.62,59,59,0,0,1,5-4.74q10.71,12,22.5,22.9C1326.89,1325.73,1325.63,1328,1323.83,1329.31Z" transform="translate(-185.06 -198.52)"/></g><path id="Headphones" class="cls-1" d="M815.36,1307.46c-.17-4.43-.14-10.37-2.94-14.12-2.57-3.46-6.52-2.7-10.27-2.77a2.22,2.22,0,0,0,.43-1.54,59.14,59.14,0,0,0-1.13-8.27,22.61,22.61,0,0,0,2.74-.92,3,3,0,0,0,1.62-1.46,2.27,2.27,0,0,0,1.1-2.05c-.14-20.45-21.62-33.12-40.33-31.85-16.36,1.11-40.2,16.12-36.13,35.33a2.11,2.11,0,0,0,2.28,1.78,2.76,2.76,0,0,0,1.06.66l.4.12a3.18,3.18,0,0,0-.09.33,56.56,56.56,0,0,0-.75,12.33,3.31,3.31,0,0,0,.07.47c-2.89,0-5.79.53-7.67,3-2.79,3.68-1.36,9.64-.9,13.85.55,5,.29,11,1.95,15.74,1.54,4.4,5.62,4,9.46,4.1a.92.92,0,0,1,0,.16,2.28,2.28,0,0,0,2.37,2.41,2.55,2.55,0,0,0,1.57.67c4.38.34,9.69-.09,11.6-4.79.91-2.24.58-5,.57-7.32,0-3.45,0-6.9,0-10.35-.05-5,.53-12-2.75-16.23a10,10,0,0,0-11.26-3.12h0a49.76,49.76,0,0,1,.61-9.6,2.56,2.56,0,0,0,0-1.11,16,16,0,0,0,1.94-.21,1.9,1.9,0,0,0,1-.55,2.33,2.33,0,0,0,2.72-1.72c2.86-10.2,12.17-18.14,22.94-18.43s20.52,7.26,23.82,17.28a2.88,2.88,0,0,0,.36.7,2.43,2.43,0,0,0,2.16,1.51,22,22,0,0,0,2.69,0,.66.66,0,0,0,0,.14,50.55,50.55,0,0,1,1,7.36.68.68,0,0,0,0,.14,2.76,2.76,0,0,0-.64.43c-3.81.49-8.27-.32-10.49,3.64-1,1.78-.8,3.74-.74,5.71.12,3.8.37,7.6.71,11.39.42,4.75.12,12.21,2.79,16.42,2.91,4.59,8.66,4.1,13.28,3.25a12.42,12.42,0,0,0,2.14-3.22c3.55-.5,8.82-.78,10.54-4.33C817.11,1318.51,815.53,1311.68,815.36,1307.46Zm-82.27,19.75c-1.5-.74-1.89-3.87-2.17-5.34-.54-2.78-.65-5.75-1-8.56-.27-2.36-.55-4.55-.66-6.92-.18-4.13,2.62-6.39,6.5-5.39h0c.55,9,.74,17.53.58,26.4A9.76,9.76,0,0,1,733.09,1327.21ZM767.5,1257c-12.54.28-23.5,9.14-27.36,20.84a2.88,2.88,0,0,0-.65,0,8.84,8.84,0,0,1-4.38-.47c-1-8.24,6.21-16.32,12.39-20.85a36.83,36.83,0,0,1,20.77-7.17c15.16-.35,32.85,9.43,33.6,26a19.46,19.46,0,0,1-6.26,1.15C791.2,1265.13,780,1256.73,767.5,1257Zm43.21,61.08c-.38,3-3.24,3.41-6,3.72a179.21,179.21,0,0,0-2.75-26.24c3.37.18,6.23-.07,7.66,4.14,1.07,3.15.74,7.15.85,10.45C810.54,1312.72,811,1315.56,810.71,1318.09Z" transform="translate(-185.06 -198.52)"/><path id="Paper" class="cls-1" d="M286.33,1265.13a2.63,2.63,0,0,0-.23-1,2.75,2.75,0,0,0-.26-.88c-1.77-3.51-4.55-6.24-7.26-9-3.16-3.26-6.38-6.47-9.59-9.68a2.33,2.33,0,0,0-1.73-.72,2.38,2.38,0,0,0-1.45-.44q-24.8.25-49.59-.57a2.24,2.24,0,0,0-2.38,2.1,2.45,2.45,0,0,0-.43,1.4q-.16,43.61-.3,87.23a2.27,2.27,0,0,0,1.69,2.29,2.43,2.43,0,0,0,1.42.45l66.79.91a2.31,2.31,0,0,0,1.78-.73,2.35,2.35,0,0,0,1.84-2.32Q287.35,1299.66,286.33,1265.13Zm-12.23-8.35c1.63,1.66,3.33,3.3,4.81,5.09-3.48-.06-7-.08-10.43,0,0-3.53.07-7.07.1-10.61C270.42,1253.07,272.27,1254.91,274.1,1256.78Zm-10.5-8.39q-.06,7.77-.14,15.53a2.61,2.61,0,0,0,.18,1,2.26,2.26,0,0,0,2.37,2q7.68-.15,15.37.07,1,32.6.29,65.25l-63.55-.86q.15-41.71.29-83.43Q241,1248.57,263.6,1248.39Z" transform="translate(-185.06 -198.52)"/><g id="Computer"><path class="cls-1" d="M1880,802.73l-2.46-86.38a2.56,2.56,0,0,0-3.78-2.13,2.23,2.23,0,0,0-1.83-.8l-128.77.64a2.31,2.31,0,0,0-2.3,1.73,2.39,2.39,0,0,0-.52,1.51q-.69,43.5,0,87a5,5,0,0,0,2.84,3.77q27.12,1.09,54.28,1.12s0,.1,0,.15c.06,1.36.56,3.65-.27,4.78-.69,1-3,1.84-4,2.5-2.7,1.77-5.37,3.58-8.15,5.22l-.13.1-.12.09a2.54,2.54,0,0,0,1.06,4.43,1.93,1.93,0,0,0,.76,0c16.72-.25,33.44.26,50.16,0,2.92,0,3.19-4.16.8-4.88a2.61,2.61,0,0,0-.65-.57l-7.78-4.68a17.15,17.15,0,0,1-3.34-2.11c-1.29-1.3-1.07-2.94-.93-4.62a2.38,2.38,0,0,0,0-.66q26.23-.45,52.44-1.88a2.56,2.56,0,0,0,2.38-3A2.28,2.28,0,0,0,1880,802.73Zm-7.41-84.4,2,68.36q-64.69,1.35-129.43.51-.3-34.08.2-68.15l126.62-.63A3.29,3.29,0,0,0,1872.6,718.33Zm-127.3,84.82c0-3.65-.08-7.3-.12-10.95q64.75.84,129.52-.51l.3,10.52Q1810.2,805.66,1745.3,803.15Zm78.14,15.56c1.42,1,2.93,1.95,4.45,2.86-11,0-22-.16-32.94-.14,1.19-.77,2.38-1.55,3.58-2.29,1.47-.9,3-1.68,3.64-3.33.81-1.93.35-4.46.26-6.47,0-.05,0-.1,0-.15q8.79,0,17.58-.14a2.68,2.68,0,0,0-.12.59C1819.56,813.37,1820.26,816.45,1823.44,818.71Z" transform="translate(-185.06 -198.52)"/><path class="cls-1" d="M1811,795.52c-3,0-3,5,0,5S1814,795.52,1811,795.52Z" transform="translate(-185.06 -198.52)"/></g><g id="Mouse_and_Mousepad" data-name="Mouse and Mousepad"><path class="cls-1" d="M1308.52,750.08a2.08,2.08,0,0,0-2.31-1.64,92.85,92.85,0,0,0-24.2,4.73,2.45,2.45,0,0,0-1.53,1.48,2.55,2.55,0,0,0-.21,1.6q1.37,7.82,2.75,15.65c.69,3.92,1,8.39,2.76,12,3.09,6.22,10.67,7.62,17,6.41,19.31-3.68,10.56-28.15,5.85-40.05A2,2,0,0,0,1308.52,750.08Zm-7.07,35.43c-3.5.61-8.4.29-10.68-2.88-1.43-2-1.66-4.85-2.07-7.17-1.08-6.06-2.13-12.12-3.2-18.18,2.28-.73,4.6-1.34,6.93-1.86.82,3.74,1.7,7.46,2.69,11.16.84,3.1,5.66,1.78,4.83-1.33-1-3.57-1.82-7.17-2.61-10.78,2.41-.39,4.83-.68,7.25-.89C1308.52,763.47,1315.85,783,1301.45,785.51Z" transform="translate(-185.06 -198.52)"/><path class="cls-1" d="M1329.75,779.7c-.35-6.64-.8-13.28-1.07-19.92-.19-4.59,0-9.18-.57-13.75-.44-3.27-1.06-7-3.74-9.29-3.14-2.64-7.51-2.11-11.32-2.52-9.84-.19-19.67-.06-29.51,0-8.81.08-18.94-1.73-27.11,2.27-7.81,3.82-5.77,15.72-6.09,22.91a312.18,312.18,0,0,0,0,34.61c.56,8.32,4.56,11,12.67,11.51,11.46.79,23.14.43,34.63.27q7.85-.12,15.69-.38c3.8-.13,9.59.7,13-1.62C1332.65,799.42,1330.09,786,1329.75,779.7Zm-4.69,13.3c-.2,3.48,0,6.3-3.92,7.14-3.64.79-8.05.32-11.77.42q-6.87.2-13.73.28-12.27.15-24.53-.07c-3.67-.07-8.75.53-12.28-.76-4.54-1.67-3.67-7.76-3.82-11.89-.3-8.58-.14-17.16.2-25.72q.27-6.43.62-12.86c.08-1.54-.32-4.51.41-5.88,1.31-2.44,4.72-3.74,7.3-4.24,4.31-.82,9.26-.13,13.66-.13,3.64,0,7.28,0,10.92-.09,8.31-.09,16.62-.14,24.93,0,3.38.36,7.62-.41,9.26,3.31,1.3,3,1.2,6.9,1.25,10.08.14,7.72.56,15.4,1,23.1.21,3.88.48,7.76.57,11.64C1325.16,789.23,1325.18,791.12,1325.06,793Z" transform="translate(-185.06 -198.52)"/></g><g id="Keyboard"><path class="cls-1" d="M835.37,736.78a2.56,2.56,0,0,0-1.79-2.23,2.18,2.18,0,0,0-2.06-1.07l-127.77,3.81a2.4,2.4,0,0,0-2.38,2.17,2.3,2.3,0,0,0-1.15,2.06q-.09,30.78,1.55,61.52a2.47,2.47,0,0,0,2.11,2.36,2.16,2.16,0,0,0,2.09,1.12q65-2.09,129.95-5.31a2.82,2.82,0,0,0,1-.23,2.32,2.32,0,0,0,2.91-2.36Q838.46,767.63,835.37,736.78Zm-130.14,5.47,125.3-3.74q2.85,28.82,4.14,57.76-64,3.15-128,5.23Q705.16,771.89,705.23,742.25Z" transform="translate(-185.06 -198.52)"/><path class="cls-1" d="M712.17,750.87l3.57-.11a2.5,2.5,0,0,0,0-5l-3.57.11a2.5,2.5,0,0,0,0,5Z" transform="translate(-185.06 -198.52)"/><path class="cls-1" d="M726.15,750.45l2.84-.12a2.5,2.5,0,0,0,0-5l-2.84.12a2.5,2.5,0,1,0,0,5Z" transform="translate(-185.06 -198.52)"/><path class="cls-1" d="M738.14,750h2.42a2.5,2.5,0,0,0,0-5h-2.42a2.5,2.5,0,1,0,0,5Z" transform="translate(-185.06 -198.52)"/><path class="cls-1" d="M749.5,749.83l3.15-.13a2.5,2.5,0,0,0,0-5l-3.15.13a2.5,2.5,0,0,0,0,5Z" transform="translate(-185.06 -198.52)"/><path class="cls-1" d="M762.85,749.58l2.74-.2a2.5,2.5,0,0,0,0-5l-2.74.2a2.55,2.55,0,0,0-2.5,2.5A2.53,2.53,0,0,0,762.85,749.58Z" transform="translate(-185.06 -198.52)"/><path class="cls-1" d="M773.9,749.42l3.05-.31a2.57,2.57,0,0,0,2.5-2.5,2.53,2.53,0,0,0-2.5-2.5l-3.05.31a2.56,2.56,0,0,0-2.5,2.5A2.51,2.51,0,0,0,773.9,749.42Z" transform="translate(-185.06 -198.52)"/><path class="cls-1" d="M786.51,748.93l2.63-.27a2.77,2.77,0,0,0,1.77-.74,2.5,2.5,0,0,0-1.77-4.26l-2.63.27a2.67,2.67,0,0,0-1.77.74,2.5,2.5,0,0,0,1.77,4.26Z" transform="translate(-185.06 -198.52)"/><path class="cls-1" d="M797.45,743.45a2.5,2.5,0,0,0,0,5,33.84,33.84,0,0,0,4-.44,2.5,2.5,0,0,0,1.75-3.07,2.58,2.58,0,0,0-3.08-1.75" transform="translate(-185.06 -198.52)"/><path class="cls-1" d="M809.85,747.87a19.28,19.28,0,0,1,2.74,0,2.51,2.51,0,0,0,2.5-2.5,2.55,2.55,0,0,0-2.5-2.5,19.28,19.28,0,0,0-2.74,0,2.5,2.5,0,0,0,0,5Z" transform="translate(-185.06 -198.52)"/><path class="cls-1" d="M821.32,747.41c1.5-.17,3-.29,4.52-.35a2.55,2.55,0,0,0,2.5-2.5,2.53,2.53,0,0,0-2.5-2.5c-1.51.06-3,.18-4.52.35a2.57,2.57,0,0,0-2.5,2.5A2.52,2.52,0,0,0,821.32,747.41Z" transform="translate(-185.06 -198.52)"/><path class="cls-1" d="M712,760.85c3,0,3-5,0-5S709,760.85,712,760.85Z" transform="translate(-185.06 -198.52)"/><path class="cls-1" d="M721,759.79c3,0,3-5,0-5S718,759.79,721,759.79Z" transform="translate(-185.06 -198.52)"/><path class="cls-1" d="M731,759.48c4,0,4-5,0-5C728,754.48,728,759.48,731,759.48Z" transform="translate(-185.06 -198.52)"/><path class="cls-1" d="M742,759.27c3,0,3-5,0-5S739,759.27,742,759.27Z" transform="translate(-185.06 -198.52)"/><path class="cls-1" d="M752,753.74c-3,0-3,5,0,5S755,753.74,752,753.74Z" transform="translate(-185.06 -198.52)"/><path class="cls-1" d="M762,758.53c3,0,3-5,0-5S759,758.53,762,758.53Z" transform="translate(-185.06 -198.52)"/><path class="cls-1" d="M772,757.69c3,0,3-5,0-5S769,757.69,772,757.69Z" transform="translate(-185.06 -198.52)"/><path class="cls-1" d="M782,752.8c-3,0-3,5,0,5C786,757.8,786,752.8,782,752.8Z" transform="translate(-185.06 -198.52)"/><path class="cls-1" d="M793,757.27c3,0,3-5,0-5S790,757.27,793,757.27Z" transform="translate(-185.06 -198.52)"/><path class="cls-1" d="M803,756.54c3,0,3-5,0-5S800,756.54,803,756.54Z" transform="translate(-185.06 -198.52)"/><path class="cls-1" d="M812,751.22c-3,0-3,5,0,5C816,756.22,816,751.22,812,751.22Z" transform="translate(-185.06 -198.52)"/><path class="cls-1" d="M828.55,753.22a2.52,2.52,0,0,0-2.5-2.5l-4.52.2a2.55,2.55,0,0,0-2.5,2.5,2.52,2.52,0,0,0,2.5,2.5l4.52-.2A2.55,2.55,0,0,0,828.55,753.22Z" transform="translate(-185.06 -198.52)"/><path class="cls-1" d="M711,769.63l6.52-.27c3.21-.14,3.22-5.14,0-5l-6.52.27C707.8,764.76,707.79,769.76,711,769.63Z" transform="translate(-185.06 -198.52)"/><path class="cls-1" d="M710.7,778.84c3.36-.16,6.73-.35,10.09-.56,3.19-.21,3.22-5.21,0-5s-6.73.4-10.09.56S707.47,779,710.7,778.84Z" transform="translate(-185.06 -198.52)"/><path class="cls-1" d="M724.05,782.46q-6.72.6-13.46.62c-3.22,0-3.22,5,0,5q6.75,0,13.46-.62C727.23,787.17,727.26,782.16,724.05,782.46Z" transform="translate(-185.06 -198.52)"/><path class="cls-1" d="M712,792.23c-3,0-3,5,0,5S715,792.23,712,792.23Z" transform="translate(-185.06 -198.52)"/><path class="cls-1" d="M721,791.6c-3,0-3,5,0,5S724,791.6,721,791.6Z" transform="translate(-185.06 -198.52)"/><path class="cls-1" d="M729,791c-3,0-3,5,0,5S732,791,729,791Z" transform="translate(-185.06 -198.52)"/><path class="cls-1" d="M739.61,791H737a2.5,2.5,0,0,0,0,5h2.63a2.5,2.5,0,1,0,0-5Z" transform="translate(-185.06 -198.52)"/><path class="cls-1" d="M780.51,793.46c3.2-.17,3.22-5.18,0-5l-32,1.77c-3.2.17-3.22,5.18,0,5" transform="translate(-185.06 -198.52)"/><path class="cls-1" d="M794.4,787.86a42.92,42.92,0,0,1-4.94.27c-3.22,0-3.23,5,0,5a42.92,42.92,0,0,0,4.94-.27,2.57,2.57,0,0,0,2.5-2.5A2.52,2.52,0,0,0,794.4,787.86Z" transform="translate(-185.06 -198.52)"/><path class="cls-1" d="M803,787.71c-3,0-3,5,0,5S806,787.71,803,787.71Z" transform="translate(-185.06 -198.52)"/><path class="cls-1" d="M812,787.5c-3,0-3,5,0,5S815,787.5,812,787.5Z" transform="translate(-185.06 -198.52)"/><path class="cls-1" d="M820,787c-3,0-3,5,0,5C824,792,824,787,820,787Z" transform="translate(-185.06 -198.52)"/><path class="cls-1" d="M829,787c-4,0-4,5,0,5C832,792,832,787,829,787Z" transform="translate(-185.06 -198.52)"/><path class="cls-1" d="M727,763.1c-3,0-3,5,0,5S730,763.1,727,763.1Z" transform="translate(-185.06 -198.52)"/><path class="cls-1" d="M735,767.89c3,0,3-5,0-5S732,767.89,735,767.89Z" transform="translate(-185.06 -198.52)"/><path class="cls-1" d="M744,767.47c3,0,3-5,0-5C740,762.47,740,767.47,744,767.47Z" transform="translate(-185.06 -198.52)"/><path class="cls-1" d="M752,762.05c-4,0-4,5,0,5C755,767.05,755,762.05,752,762.05Z" transform="translate(-185.06 -198.52)"/><path class="cls-1" d="M761,766.84c3,0,3-5,0-5C757,761.84,757,766.84,761,766.84Z" transform="translate(-185.06 -198.52)"/><path class="cls-1" d="M770,766.52c3,0,3-5,0-5S767,766.52,770,766.52Z" transform="translate(-185.06 -198.52)"/><path class="cls-1" d="M780,761.42c-4,0-4,5,0,5C783,766.42,783,761.42,780,761.42Z" transform="translate(-185.06 -198.52)"/><path class="cls-1" d="M789,761c-3,0-3,5,0,5S792,761,789,761Z" transform="translate(-185.06 -198.52)"/><path class="cls-1" d="M798,765.26c3,0,3-5,0-5S795,765.26,798,765.26Z" transform="translate(-185.06 -198.52)"/><path class="cls-1" d="M807,764.84c3,0,3-5,0-5S804,764.84,807,764.84Z" transform="translate(-185.06 -198.52)"/><path class="cls-1" d="M816,764.32c3,0,3-5,0-5S813,764.32,816,764.32Z" transform="translate(-185.06 -198.52)"/><path class="cls-1" d="M825,759c-3,0-3,5,0,5S828,759,825,759Z" transform="translate(-185.06 -198.52)"/><path class="cls-1" d="M730,777.46c3,0,3-5,0-5S727,777.46,730,777.46Z" transform="translate(-185.06 -198.52)"/><path class="cls-1" d="M739,772.25c-3,0-3,5,0,5S742,772.25,739,772.25Z" transform="translate(-185.06 -198.52)"/><path class="cls-1" d="M748,771.93c-4,0-4,5,0,5C751,776.93,751,771.93,748,771.93Z" transform="translate(-185.06 -198.52)"/><path class="cls-1" d="M756,775.67c4,0,4-5,0-5C753,770.67,753,775.67,756,775.67Z" transform="translate(-185.06 -198.52)"/><path class="cls-1" d="M766,770.36c-4,0-4,5,0,5C769,775.36,769,770.36,766,770.36Z" transform="translate(-185.06 -198.52)"/><path class="cls-1" d="M774,770.15c-3,0-3,5,0,5S777,770.15,774,770.15Z" transform="translate(-185.06 -198.52)"/><path class="cls-1" d="M782,769.83c-3,0-3,5,0,5S785,769.83,782,769.83Z" transform="translate(-185.06 -198.52)"/><path class="cls-1" d="M791,774.41c3,0,3-5,0-5S788,774.41,791,774.41Z" transform="translate(-185.06 -198.52)"/><path class="cls-1" d="M800,768.57c-3,0-3,5,0,5S803,768.57,800,768.57Z" transform="translate(-185.06 -198.52)"/><path class="cls-1" d="M809,768c-3,0-3,5,0,5S812,768,809,768Z" transform="translate(-185.06 -198.52)"/><path class="cls-1" d="M825,766.87l-7,.11c-3.21,0-3.22,5,0,5l7-.11C828.21,771.82,828.22,766.82,825,766.87Z" transform="translate(-185.06 -198.52)"/><path class="cls-1" d="M733,781.19c-3,0-3,5,0,5S736,781.19,733,781.19Z" transform="translate(-185.06 -198.52)"/><path class="cls-1" d="M742,781c-3,0-3,5,0,5S745,781,742,781Z" transform="translate(-185.06 -198.52)"/><path class="cls-1" d="M751,780.66c-3,0-3,5,0,5C755,785.66,755,780.66,751,780.66Z" transform="translate(-185.06 -198.52)"/><path class="cls-1" d="M760,779.72c-3,0-3,5,0,5S763,779.72,760,779.72Z" transform="translate(-185.06 -198.52)"/><path class="cls-1" d="M770,784.3c4,0,4-5,0-5C767,779.3,767,784.3,770,784.3Z" transform="translate(-185.06 -198.52)"/><path class="cls-1" d="M778,783.77c4,0,4-5,0-5C775,778.77,775,783.77,778,783.77Z" transform="translate(-185.06 -198.52)"/><path class="cls-1" d="M787,778.35c-3,0-3,5,0,5S790,778.35,787,778.35Z" transform="translate(-185.06 -198.52)"/><path class="cls-1" d="M797,777.4c-4,0-4,5,0,5C800,782.4,800,777.4,797,777.4Z" transform="translate(-185.06 -198.52)"/><path class="cls-1" d="M806,777.09c-3,0-3,5,0,5S809,777.09,806,777.09Z" transform="translate(-185.06 -198.52)"/><path class="cls-1" d="M826.05,776.13c-3.69,0-7.36.16-11,.46-3.18.26-3.21,5.26,0,5,3.68-.3,7.35-.45,11-.46C829.27,781.12,829.27,776.12,826.05,776.13Z" transform="translate(-185.06 -198.52)"/></g><g id="Coffee"><path class="cls-1" d="M287.56,783.38c-2-10.9-10.32-17-20.68-16.8-.05-.84-.1-1.68-.14-2.52a2.41,2.41,0,0,0-1.19-2c-1.32-3.31-6-4.5-9.11-5.33-5.77-1.55-11.71-1-17.61-1.07a62.13,62.13,0,0,0-7.23.52c0-2.14,1.3-4.32,2-6.64a8.92,8.92,0,0,0-.62-7.32c-1.57-2.8-5.89-.29-4.32,2.53,1.75,3.12-2.11,7.56-2.22,10.89a9.65,9.65,0,0,0,.07,1.43,58.92,58.92,0,0,0-6.84,1.92c-3.17,1.09-7.51,2.7-7.39,6.82a1.36,1.36,0,0,0,0,.2,2.46,2.46,0,0,0-.19,1q.35,16.53.71,33.06c.18,8.16,2.55,13.65,10.76,16.43,8.43,2.86,18.55,1.49,27.16.23,7.11-1,15.16-2.55,16.67-10.46a2.29,2.29,0,0,0,.81-1.82c0-.82,0-1.63,0-2.45C278.92,801.49,289.92,796,287.56,783.38Zm-19.95-3.3c3,.07,6.06,1.67,6.36,5s-3.06,4.07-6,4.13C267.9,786.15,267.76,783.12,267.61,780.08Zm-39.24-18.41a12.53,12.53,0,0,0,1.3,1.53c1.87,1.85,4.57-.17,4.25-2.2,2.41-.23,4.3-.34,4.91-.35,3.22.06,6.43-.1,9.64,0,2.22.06,8,.1,9.73,1.9,1.33,1.38.89,2.3-.33,2.92a2.56,2.56,0,0,0-.86-.29,109.6,109.6,0,0,0-35,.47,2.08,2.08,0,0,0-1.54,1c-1.39-.19-2.28-.46-2.32-.83C217.93,763.79,223.11,762.47,228.37,761.67Zm34.22,43.75c-.85,7.06-15.85,7-20.76,7.33-6.59.46-15.18,1.26-20.75-3-5.22-4-3.35-14.4-3.47-20.3l-.41-18.71a28.79,28.79,0,0,0,3.25.62c6.32.92,12.86.74,19.23.68,4,0,16.1.77,22.37-2.42.64,11.44,1.26,22.9,1.19,34.37A2.56,2.56,0,0,0,262.59,805.42ZM268.2,797c0-1,0-1.95-.05-2.92,5.4-.33,11.12-2.51,10.84-9-.26-6-5.91-10.25-11.64-10-.06-1.16-.13-2.33-.19-3.49,6.92,0,12.17,3,14.8,10.21C285.74,792.14,276.93,796.55,268.2,797Z" transform="translate(-185.06 -198.52)"/><path class="cls-1" d="M244.51,749.15c.69,3.14,5.51,1.81,4.83-1.33-1.08-4.93,2.91-8.52,3.2-13.33a18.1,18.1,0,0,0-3.62-11.27c-1.81-2.64-6.14-.14-4.31,2.52,3.37,4.9,3.38,8.75.88,14A13.9,13.9,0,0,0,244.51,749.15Z" transform="translate(-185.06 -198.52)"/></g><path id="Pencil" class="cls-1" d="M1838.94,266.86c-.06-.19,0-.38-.14-.58-11.7-19-23.48-37.9-38.15-54.74a2.21,2.21,0,0,0-1.24-.78,2,2,0,0,0-2-.17c-6.44,2.6-14.15,6.27-17.58,12.66a2.37,2.37,0,0,0,.13,2.56,2.17,2.17,0,0,0,.36,1.79q16.9,25.36,34.94,49.92a3.52,3.52,0,0,0,.31.35,2.32,2.32,0,0,0,1.07,1.11c6.46,3.51,12.77,6.8,19.44,9.88A2.36,2.36,0,0,0,1840,287V269A2.11,2.11,0,0,0,1838.94,266.86ZM1821.58,276l1.59-2.73,3.45.14a2.4,2.4,0,0,0,2.84-1.11,25.11,25.11,0,0,0,1-2.52c1.56.29,2.87.57,4.43.85.11,0,.08,0,.08,0V275s0,0-.09.07a9.78,9.78,0,0,0-5.91,4.78C1826.46,278.58,1824.08,277.28,1821.58,276Zm-37-50.92c2.78-4.4,8.42-7.24,13.19-9.23q3,3.52,5.92,7.17a41.69,41.69,0,0,0-14,9.57c-1.68-2.48-3.37-5-5-7.46Zm7.93,11.75a36.69,36.69,0,0,1,14.13-9.66l.2-.09c9.21,12.11,17.36,25,25.38,38l-2.26-.41a2.87,2.87,0,0,0-2.1.4,2.48,2.48,0,0,0-1.65,1.69c-.15.56-.32,1.11-.52,1.66l-3.73-.16a2.25,2.25,0,0,0-1.38.42,2.45,2.45,0,0,0-1.1,1l-1.72,2.94Q1804.88,254.85,1792.54,236.78Z" transform="translate(-185.06 -198.52)"/><path id="Notebook" class="cls-1" d="M1319.06,224.41c0-8.26,3-23.73-8.66-25.19-7.11-.89-14.58-.51-21.74-.61q-11.87-.15-23.73,0a2.41,2.41,0,0,0-2.41,2.7,2.37,2.37,0,0,0-.77,1.75q-1.11,37.81-.68,75.66a2.37,2.37,0,0,0,2.27,2.39l20.05,13.6c4.78,3.25,10.1,7.58,16.29,6.67,5.06-.75,7.75-4.27,8.31-9,3.73-.1,7.54-1.08,9.56-4.53,2.62-4.47,1.19-11.91,1.25-16.84Q1319.06,247.7,1319.06,224.41Zm-13.53-3.64a3.68,3.68,0,0,0-.15-.35c-2.34-5-8.32-7-13.35-8.94,3.24.45,7.08.75,9.7,2C1305,215.05,1305.54,217.76,1305.53,220.77Zm-6.86,75.6c-5.21,1.12-12.68-6-16.64-8.65l-16-10.83q-.37-35.56.62-71.12l15.18,6.71,9,4c2.52,1.11,5.94,2,8.1,3.75,4.68,3.76,3,13.42,3.16,18.7l.39,19.49q.18,9.75.38,19.5.11,4.86.2,9.74c0,.54,0,1.09,0,1.63a2.15,2.15,0,0,0,0,.67C1303,292.91,1302.32,295.59,1298.67,296.37Zm15.39-72q0,16.85-.14,33.69-.06,8.43-.17,16.85c0,2.61.15,5.33-.1,7.93a4.37,4.37,0,0,1-3.82,4.27,2.85,2.85,0,0,0,0-.29q.42-29.46.54-58.93c0-5.68,1.93-15.05-4.29-18.35-3.06-1.62-7.51-1.81-10.88-2.47L1279.58,204a3.13,3.13,0,0,0-.42,0,3.36,3.36,0,0,0-.54-.26l-.43-.16q10.18,0,20.36.26c3,.07,5.93.14,8.89.25,3.21.12,5.56.63,6.34,4C1314.93,213.14,1314.06,219.27,1314.06,224.41Z" transform="translate(-185.06 -198.52)"/><path id="Plant" class="cls-1" d="M801.15,251.3a2.19,2.19,0,0,0-2.31-1.68c-2.86.1-5.72.17-8.59.24a102.89,102.89,0,0,1,8.82-22.56,2.59,2.59,0,0,0-3-3.65,2.63,2.63,0,0,0-1.13-.07,22,22,0,0,0-11,5c1.06-8.12,4.18-15.75,7.61-23.25,1.19-2.61-2.17-4.92-3.83-3.23a2.65,2.65,0,0,0-.86.56,87.26,87.26,0,0,0-19.36,28.42,42.93,42.93,0,0,0-20.79-19.39,2.73,2.73,0,0,0-3.74,3,2.63,2.63,0,0,0,.61,1.41,61.35,61.35,0,0,1,9.91,16.5A15.83,15.83,0,0,0,742,229.41a2.59,2.59,0,0,0-1.31.54c-1.94.2-3.5,2.59-1.63,4.14,2.56,2.12,3.71,5.06,5,8l3.62,8.22h-5.05a2.35,2.35,0,0,0-2.4,2.62,2.2,2.2,0,0,0-.16,1.2,96.33,96.33,0,0,0,2.14,11.68,2.21,2.21,0,0,0,2.1,1.78,3.27,3.27,0,0,0,.66.1h1q2.57,14.29,5.83,28.46a2.24,2.24,0,0,0,3,1.68,2.46,2.46,0,0,0,.84.19,209.62,209.62,0,0,0,29-.33,2.43,2.43,0,0,0,1.62-.75,2.5,2.5,0,0,0,3.26-1.59,130.58,130.58,0,0,0,5.88-28.45l.57,0a2.44,2.44,0,0,0,1.6-.66,2.23,2.23,0,0,0,1.86-1.73A76.52,76.52,0,0,0,801.64,253,2,2,0,0,0,801.15,251.3ZM795,262q-24.13,1.14-48.31.77c-.56-2.44-1-4.9-1.37-7.39q25.56.15,51.12-.64A66.56,66.56,0,0,1,795,262Zm-2.53-32.57A108,108,0,0,0,785.06,250c-3,.07-6,.11-9,.16C779.43,241.71,783.75,232.61,792.44,229.38Zm-21.62,6.68a81.07,81.07,0,0,1,11-20.14,57.48,57.48,0,0,0-3.33,18.42,1,1,0,0,0,0,.17,63.83,63.83,0,0,0-6.34,12,44.29,44.29,0,0,0-2.12-9.37A2.56,2.56,0,0,0,770.82,236.06Zm-3.33,14.22-2.07,0a40.41,40.41,0,0,0-5.5-11,2.2,2.2,0,0,0,.41-2.16,67.45,67.45,0,0,0-6.72-15.34A38.07,38.07,0,0,1,767.49,250.28ZM753,249.92c-2.05-4.66-3.78-10.65-6.78-15.25,6.63,1.68,11.58,9.21,14,15.67h-7A4.28,4.28,0,0,0,753,249.92Zm32.2,42.81a3.81,3.81,0,0,0-.48,0,208.52,208.52,0,0,1-28.39.36q-2.87-12.6-5.17-25.32,19.65.18,39.3-.63A124.9,124.9,0,0,1,785.17,292.73Z" transform="translate(-185.06 -198.52)"/><g id="Phone"><path class="cls-1" d="M252.94,280a6,6,0,0,0-5.23,2.1,5.57,5.57,0,0,0-1.53,5.3,5.87,5.87,0,0,0,4.44,3.87,6.32,6.32,0,0,0,6.11-1.92,5.48,5.48,0,0,0,.47-6.28C256.3,281.45,255.55,280.31,252.94,280Z" transform="translate(-185.06 -198.52)"/><path class="cls-1" d="M282.46,296.25q-.25-23.42-.55-46.84c-.19-14.1,1.11-29.25-1.94-43.09a2.11,2.11,0,0,0-1.72-1.74,2.38,2.38,0,0,0-1.74-.78q-25.89-.86-51.76.27a2.4,2.4,0,0,0-2.28,1.77,2.37,2.37,0,0,0-2.42,2.41q-.23,43.5.67,87a2.86,2.86,0,0,0,.44,1.51A2.53,2.53,0,0,0,223.5,300H279a2.37,2.37,0,0,0,2.16-1.47A2.42,2.42,0,0,0,282.46,296.25Zm-7.1-87.48c1.26,6.48,1.13,13.13,1.24,19.71.13,7.64.24,15.41.34,23.05.19,14.45.35,28.47.5,43.47H225.71c-.59-29-.81-57.25-.66-85.82C241.82,208.46,258.59,208.24,275.36,208.77Z" transform="translate(-185.06 -198.52)"/><path class="cls-1" d="M230.53,217.7c.32,18.34.38,36.68.7,55l0,.22a2.4,2.4,0,0,0,2.41,2.64l35.16.42a2.27,2.27,0,0,0,1.89-.86,2.34,2.34,0,0,0,.61-1.64q0-28.08-.54-56.17a2.55,2.55,0,0,0-.22-1,2.34,2.34,0,0,0-2.4-2.6l-35.5.27A2.51,2.51,0,0,0,230.53,217.7ZM266.33,271l-30.13-.36c-.28-17.22-.36-34.44-.65-51.65l30.27-.24Q266.28,244.85,266.33,271Z" transform="translate(-185.06 -198.52)"/></g><rect class="cls-1" x="2005.51" y="1494.82" width="20.45" height="20.45"/><rect class="cls-1" x="2025.97" y="1515.27" width="20.45" height="20.45"/><rect class="cls-1" x="2046.42" y="1535.72" width="20.45" height="20.45"/><rect class="cls-1" x="2066.87" y="1556.18" width="20.45" height="20.45"/><rect class="cls-1" x="2086.5" y="1535.72" width="20.45" height="20.45"/><rect class="cls-1" x="2106.95" y="1515.27" width="20.45" height="20.45"/><rect class="cls-1" x="2127.41" y="1494.82" width="20.45" height="20.45"/><rect class="cls-1" x="2046.42" y="1576.63" width="20.45" height="20.45"/><rect class="cls-1" x="2025.97" y="1597.08" width="20.45" height="20.45"/><rect class="cls-1" x="2005.51" y="1617.53" width="20.45" height="20.45"/><rect class="cls-1" x="2087.33" y="1576.63" width="20.45" height="20.45"/><rect class="cls-1" x="2107.78" y="1597.08" width="20.45" height="20.45"/><rect class="cls-1" x="2127.41" y="1617.53" width="20.45" height="20.45"/></svg>