<?xml version="1.0" encoding="utf-8"?>
<!-- Generator: Adobe Illustrator 16.0.4, SVG Export Plug-In . SVG Version: 6.00 Build 0)  -->
<!DOCTYPE svg PUBLIC "-//W3C//DTD SVG 1.1//EN" "http://www.w3.org/Graphics/SVG/1.1/DTD/svg11.dtd">
<svg version="1.1" id="Layer_1" xmlns="http://www.w3.org/2000/svg" xmlns:xlink="http://www.w3.org/1999/xlink" x="0px" y="0px"
	 width="636.576px" height="332.092px" viewBox="0 0 636.576 332.092" enable-background="new 0 0 636.576 332.092"
	 xml:space="preserve">
<g>
	<path fill-rule="evenodd" clip-rule="evenodd" d="M70.847,178.349c-0.168,0.349-0.106,0.722-0.106,1.085
		c-0.002,22.034-0.001,44.069,0,66.103c0,0.157,0.019,0.314,0.029,0.471c-0.343,0.366-0.791,0.212-1.191,0.213
		c-6.72,0.01-13.44-0.022-20.16,0.036c-1.188,0.01-1.486-0.318-1.486-1.494c0.029-52.027,0.025-104.054,0.034-156.082
		c0-0.451-0.179-0.951,0.211-1.35c7.28,0.009,14.56,0.018,21.839,0.022c0.153,0,0.306-0.055,0.459-0.084
		c0.104-0.006,0.208-0.013,0.312-0.019c0.157,0.142,0.271,0.313,0.342,0.512c0.251,0.928,0.162,1.878,0.163,2.819
		c0.005,20.264,0.004,40.527,0.004,60.791c0,0.42-0.004,0.84,0.001,1.26c0.028,2.102,0.119,2.209,2.247,2.211
		c13.071,0.008,26.143,0.002,39.214,0.006c0.892,0,1.786-0.048,2.674,0.083c0.202,0.038,0.393,0.111,0.57,0.214
		c0.191,0.126,0.254,0.3,0.19,0.521c-0.03,0.153-0.085,0.307-0.085,0.459c0.005,7.28,0.014,14.559,0.023,21.838
		c-0.505,0.429-1.107,0.209-1.658,0.209c-13.979,0.014-27.956,0.009-41.935,0.019C71.976,178.194,71.386,178.038,70.847,178.349z"/>
	<path fill-rule="evenodd" clip-rule="evenodd" d="M456.433,19.289c6.872,0.01,13.744,0.02,20.616,0.03
		c0.367,0,0.735,0.021,1.102-0.004c0.583-0.04,0.892,0.163,0.849,0.796c-0.029,0.418-0.005,0.839-0.005,1.259
		c0,51.569,0,103.139,0.001,154.708c0,0.629,0.02,1.258,0.03,1.887c-0.343,0.367-0.791,0.213-1.192,0.214
		c-6.72,0.009-13.439-0.023-20.159,0.035c-1.188,0.01-1.486-0.318-1.486-1.494c0.03-52.027,0.025-104.055,0.034-156.082
		C456.222,20.188,456.043,19.687,456.433,19.289z"/>
	<path fill-rule="evenodd" clip-rule="evenodd" d="M365.7,132.987c-0.036,0.151-0.102,0.302-0.102,0.453
		c0.006,7.308,0.017,14.616,0.026,21.923c-0.094,0.044-0.188,0.09-0.283,0.135c-7.032,0.017-14.065-0.029-21.098,0.037
		c-1.223,0.011-1.46-0.378-1.459-1.517c0.033-21.781,0.023-43.562,0.033-65.342c0-0.45-0.184-0.951,0.214-1.347
		c7.279,0.01,14.557,0.02,21.836,0.024c0.153,0,0.306-0.055,0.459-0.084c0.103-0.007,0.205-0.014,0.308-0.021
		c0.156,0.138,0.269,0.306,0.341,0.502c0.225,0.769,0.162,1.559,0.163,2.343c0.007,5.345-0.006,10.69,0.007,16.035
		c0.008,3.545-0.302,3.361,3.284,3.362c12.734,0.004,25.468,0,38.201,0.004c0.89,0,1.782-0.049,2.669,0.083
		c0.2,0.037,0.387,0.11,0.562,0.213c0.187,0.127,0.248,0.299,0.183,0.516c-0.029,0.153-0.085,0.306-0.085,0.459
		c0.005,7.28,0.015,14.56,0.024,21.839c-0.507,0.427-1.108,0.208-1.659,0.208c-13.978,0.015-27.955,0.009-41.933,0.019
		C366.828,132.833,366.239,132.676,365.7,132.987z"/>
	<path fill-rule="evenodd" clip-rule="evenodd" d="M161.582,87.332c6.816,0.01,13.633,0.02,20.449,0.03
		c0.367,0.001,0.737,0.029,1.101-0.005c0.71-0.067,1.113,0.14,1.019,0.944c-0.042,0.362-0.007,0.733-0.007,1.101
		c0,28.945,0,57.89,0.002,86.835c0,0.576,0.019,1.152,0.029,1.729c-0.343,0.367-0.79,0.213-1.191,0.214
		c-6.719,0.009-13.439-0.023-20.159,0.035c-1.186,0.01-1.488-0.315-1.487-1.492c0.033-29.347,0.025-58.694,0.034-88.041
		C161.371,88.23,161.192,87.73,161.582,87.332z"/>
	<path fill-rule="evenodd" clip-rule="evenodd" d="M101.1,223.417c4.913,0.01,9.826,0.13,14.738-0.062
		c0.103-0.007,0.206-0.013,0.308-0.021c0.157,0.139,0.27,0.308,0.341,0.504c0.244,0.874,0.162,1.77,0.163,2.657
		c0.006,12.996,0.002,25.992,0.005,38.988c0,2.768,0.005,2.771,2.78,2.771c7.913,0.002,15.826-0.001,23.739,0.003
		c0.838,0,1.677-0.044,2.512,0.083c0.2,0.038,0.388,0.111,0.564,0.214c0.188,0.126,0.249,0.3,0.184,0.517
		c-0.2,1.929-0.074,3.863-0.085,5.794c-0.018,2.981,0.013,5.962,0.023,8.943c-0.504,0.429-1.105,0.208-1.655,0.209
		c-8.939,0.016-17.879,0.008-26.819,0.02c-0.562,0-1.151-0.157-1.689,0.155c-0.036,0.204-0.104,0.408-0.104,0.612
		c0.005,9.749,0.016,19.497,0.025,29.246c-0.191,0.229-0.455,0.22-0.719,0.22c-4.462,0.002-8.925-0.021-13.387,0.018
		c-0.896,0.008-1.257-0.28-1.151-1.167c0.037-0.311,0.006-0.63,0.006-0.944c0-28.979-0.002-57.958,0.011-86.937
		C100.891,224.633,100.668,223.981,101.1,223.417z"/>
	<path fill-rule="evenodd" clip-rule="evenodd" d="M305.23,208.294c4.708,0.01,9.416,0.022,14.124,0.026
		c0.203,0,0.407-0.067,0.61-0.103c0.365-1.276,0.134-2.579,0.15-3.868c0.04-3.227,0.002-6.456,0.024-9.684
		c0.003-0.496-0.206-1.044,0.208-1.491c4.405,0.01,8.811,0.02,13.215,0.03c0.367,0.001,0.734,0.011,1.102,0.001
		c0.444-0.013,0.69,0.165,0.683,0.635c-0.006,0.367,0.001,0.734,0.001,1.101c0,4.091-0.005,8.182,0.003,12.272
		c0.002,1.088,0.02,1.105,1.107,1.107c4.196,0.008,8.392,0.006,12.588,0.002c1.548-0.001,1.421-0.046,1.424,1.472
		c0.007,4.51,0.02,9.021,0.029,13.53c-0.446,0.417-0.994,0.207-1.49,0.209c-4.009,0.02-8.019,0.005-12.027,0.019
		c-0.509,0.002-1.043-0.146-1.525,0.156c-0.168,0.347-0.106,0.72-0.106,1.082c-0.002,14.449-0.002,28.898,0,43.347
		c0,0.209,0.021,0.418,0.034,0.626c-0.094,0.045-0.187,0.09-0.281,0.135c-4.512,0.016-9.026-0.044-13.537,0.038
		c-1.225,0.022-1.465-0.374-1.462-1.517c0.038-14.01,0.027-28.02,0.022-42.03c-0.001-2.06,0.22-1.839-1.858-1.843
		c-3.988-0.007-7.976-0.006-11.963,0.001c-0.711,0.001-1.328,0.08-1.316-1.003c0.048-4.564,0.017-9.13,0.02-13.695
		C305.008,208.63,305.063,208.443,305.23,208.294z"/>
	<path fill-rule="evenodd" clip-rule="evenodd" d="M516.918,208.293c4.708,0.011,9.416,0.023,14.125,0.027
		c0.203,0,0.407-0.068,0.61-0.104c0.364-1.276,0.134-2.579,0.149-3.868c0.04-3.227,0.003-6.455,0.024-9.683
		c0.004-0.496-0.205-1.043,0.208-1.491c4.405,0.01,8.811,0.02,13.216,0.03c0.367,0.001,0.734,0.011,1.102,0
		c0.443-0.012,0.69,0.165,0.683,0.635c-0.007,0.368,0.002,0.735,0.002,1.102c0,4.091-0.005,8.182,0.003,12.273
		c0.002,1.088,0.02,1.105,1.107,1.107c4.195,0.008,8.392,0.006,12.588,0.002c1.548-0.001,1.421-0.046,1.423,1.473
		c0.008,4.51,0.02,9.021,0.03,13.53c-0.446,0.416-0.994,0.207-1.49,0.209c-4.009,0.02-8.018,0.005-12.027,0.019
		c-0.508,0.002-1.043-0.146-1.524,0.155c-0.17,0.347-0.107,0.72-0.107,1.083c-0.003,14.449-0.002,28.898,0,43.348
		c0,0.209,0.021,0.417,0.033,0.626c-0.094,0.045-0.187,0.09-0.28,0.135c-4.513,0.016-9.026-0.044-13.538,0.038
		c-1.224,0.022-1.466-0.373-1.462-1.517c0.037-14.01,0.026-28.02,0.021-42.03c0-2.06,0.221-1.839-1.858-1.843
		c-3.987-0.007-7.976-0.006-11.963,0.001c-0.71,0.001-1.327,0.08-1.316-1.003c0.048-4.564,0.018-9.13,0.021-13.695
		C516.696,208.631,516.751,208.443,516.918,208.293z"/>
	<path fill-rule="evenodd" clip-rule="evenodd" d="M365.625,155.363c0.576,0.014,1.153,0.04,1.729,0.04
		c21.46,0.002,42.92,0,64.381,0.006c2.188,0,1.887-0.272,1.894,1.938c0.021,6.873,0.024,13.746,0.034,20.619
		c-0.452,0.412-1.004,0.21-1.504,0.21c-21.652,0.012-43.304,0.01-64.955,0.01c-1.71,0-1.713-0.003-1.714-1.676
		c-0.001-6.553-0.005-13.106,0.008-19.66c0.001-0.508-0.166-1.051,0.174-1.526L365.625,155.363z"/>
	<path fill-rule="evenodd" clip-rule="evenodd" d="M116.144,87.327c6.978,0.012,13.955,0.021,20.932,0.037
		c1.9,0.004,1.704-0.193,1.704,1.659c0.003,21.511,0.002,43.022,0.003,64.533c0,0.577,0.019,1.153,0.03,1.73
		c-0.288,0.335-0.68,0.215-1.031,0.215c-6.915,0.007-13.83,0.006-20.745,0.003c-0.309,0-0.634,0.059-0.9-0.173l0.04,0.039
		c-0.544-0.6-0.526-1.348-0.527-2.081c-0.009-21.292-0.009-42.584,0-63.877c0-0.627-0.02-1.264,0.284-1.847
		C116.002,87.484,116.073,87.405,116.144,87.327z"/>
	<path fill-rule="evenodd" clip-rule="evenodd" d="M471.477,223.412c4.457,0.012,8.915,0.02,13.372,0.036
		c1.898,0.007,1.703-0.194,1.704,1.658c0.003,14.161,0.002,28.322,0.003,42.483c0,0.366,0.019,0.733,0.029,1.1
		c-0.338,0.373-0.784,0.212-1.181,0.213c-4.544,0.004-9.087,0.022-13.63-0.003c-0.215-0.024-0.379-0.128-0.495-0.31
		c-0.348-0.685-0.282-1.428-0.285-2.156c-0.012-3.245-0.001-6.49-0.006-9.735c-0.004-2.542-0.017-2.56-2.503-2.562
		c-8.165-0.004-16.329,0.001-24.494-0.006c-0.832-0.001-1.679,0.09-2.486-0.224c-0.193-0.093-0.324-0.242-0.392-0.445
		c-0.047-4.634-0.01-9.269-0.015-13.904c-0.001-0.348-0.127-0.739,0.217-1.021c9.748,0.01,19.495,0.021,29.243,0.026
		c0.204,0,0.408-0.067,0.612-0.103c0.34-1.328,0.14-2.679,0.152-4.018c0.035-3.588,0.003-7.177,0.017-10.765
		C471.385,223.588,471.431,223.5,471.477,223.412z"/>
	<path fill-rule="evenodd" clip-rule="evenodd" d="M365.709,64.651c4.826,0.01,9.651,0.026,14.477,0.028
		c9.651,0.005,19.303,0.001,28.954,0.001c0.367,0,0.735,0.019,1.102-0.001c0.562-0.031,0.735,0.261,0.712,0.769
		c-0.017,0.366-0.002,0.734-0.002,1.102c0.013,6.923,0.024,13.846,0.036,20.77c-0.079,0.068-0.158,0.137-0.237,0.208
		c-0.738,0.368-1.536,0.286-2.316,0.286c-13.419,0.007-26.837,0.007-40.256-0.001c-0.878,0-1.801,0.131-2.552-0.526l0.04,0.04
		c-0.232-0.267-0.174-0.592-0.174-0.9c-0.003-6.915-0.004-13.83,0.003-20.744C365.495,65.331,365.376,64.939,365.709,64.651z"/>
	<path fill-rule="evenodd" clip-rule="evenodd" d="M70.858,64.651c6.924,0.01,13.849,0.024,20.772,0.029
		c7.502,0.005,15.004,0.001,22.506,0.001c0.367,0,0.737,0.03,1.101-0.006c0.723-0.07,0.919,0.294,0.868,0.937
		c-0.029,0.365-0.006,0.734-0.005,1.101c0.014,6.872,0.028,13.743,0.043,20.614l0.039-0.046c-0.599,0.545-1.345,0.535-2.081,0.535
		c-13.748,0.009-27.497,0.009-41.245,0c-0.734,0-1.482,0.015-2.083-0.529l0.04,0.04c-0.232-0.267-0.173-0.592-0.174-0.9
		c-0.003-6.915-0.003-13.83,0.003-20.744C70.644,65.331,70.524,64.939,70.858,64.651z"/>
	<path fill-rule="evenodd" clip-rule="evenodd" d="M252.278,223.71c-0.031,0.416-0.088,0.831-0.089,1.247
		c-0.004,19.356-0.003,38.711-0.002,58.067c0,0.262,0.02,0.523,0.03,0.786c-0.192,0.23-0.455,0.22-0.719,0.22
		c-4.462,0.002-8.925-0.044-13.386,0.029c-1.27,0.021-1.151-0.68-1.15-1.492c0.007-8.242,0.004-16.484,0.004-24.726
		c0-10.919-0.004-21.839,0.012-32.759c0-0.553-0.217-1.156,0.208-1.665c4.913,0.01,9.826,0.13,14.738-0.062
		c0.06-0.031,0.12-0.062,0.179-0.094c0.062,0.029,0.123,0.057,0.184,0.086C252.366,223.47,252.363,223.591,252.278,223.71z"/>
	<path fill-rule="evenodd" clip-rule="evenodd" d="M494.234,223.417c4.35,0.01,8.698,0.012,13.047,0.034
		c2.223,0.012,1.949-0.296,1.95,1.877c0.007,17.661,0.003,35.321,0.005,52.981c0.001,1.833,0.02,3.667,0.029,5.501
		c-0.191,0.23-0.455,0.22-0.719,0.22c-4.462,0.002-8.925-0.044-13.386,0.029c-1.271,0.021-1.151-0.68-1.15-1.492
		c0.007-8.242,0.004-16.484,0.004-24.726c0-10.919-0.004-21.839,0.012-32.759C494.026,224.528,493.809,223.925,494.234,223.417z"/>
	<path fill-rule="evenodd" clip-rule="evenodd" d="M358.149,223.417c4.912,0.01,9.826,0.13,14.738-0.062
		c0.06-0.031,0.119-0.062,0.18-0.094c0.061,0.028,0.122,0.057,0.183,0.085c0.078,0.123,0.08,0.245-0.008,0.364
		c-0.03,0.363-0.088,0.726-0.088,1.089c-0.005,19.46-0.004,38.921-0.003,58.382c0,0.209,0.02,0.418,0.029,0.628
		c-0.191,0.23-0.455,0.22-0.719,0.22c-4.462,0.002-8.925-0.044-13.386,0.029c-1.271,0.021-1.151-0.68-1.151-1.492
		c0.008-8.242,0.005-16.484,0.005-24.726c0-10.919-0.004-21.839,0.011-32.759C357.941,224.528,357.724,223.925,358.149,223.417z"/>
	<path fill-rule="evenodd" clip-rule="evenodd" d="M214.427,223.412c4.458,0.012,8.915,0.02,13.372,0.036
		c1.899,0.007,1.703-0.193,1.704,1.659c0.003,14.161,0.001,28.321,0.003,42.482c0,0.366,0.02,0.733,0.03,1.1
		c-0.339,0.374-0.787,0.213-1.184,0.213c-4.551,0.002-9.102,0.026-13.654-0.006c-0.219-0.031-0.381-0.143-0.489-0.336
		c-0.348-0.744-0.272-1.541-0.272-2.322c-0.007-13.424-0.007-26.849,0-40.272c0-0.781-0.084-1.58,0.282-2.319
		C214.287,223.568,214.357,223.49,214.427,223.412z"/>
	<path fill-rule="evenodd" clip-rule="evenodd" d="M169.145,223.415c4.912,0.016,9.824,0.128,14.735-0.06
		c0.104-0.006,0.208-0.013,0.311-0.019c0.158,0.142,0.271,0.314,0.342,0.513c0.223,0.77,0.162,1.562,0.162,2.346
		c0.005,13.277,0.006,26.554,0,39.83c-0.001,0.834,0.088,1.684-0.234,2.491c-0.097,0.199-0.251,0.33-0.461,0.394
		c-4.561,0-9.122-0.032-13.682,0.024c-1.084,0.013-1.42-0.281-1.418-1.395c0.036-14.312,0.022-28.625,0.03-42.936
		C168.93,224.203,168.773,223.755,169.145,223.415z"/>
	<path fill-rule="evenodd" clip-rule="evenodd" d="M146.385,223.412c4.458,0.012,8.915,0.02,13.372,0.036
		c1.899,0.007,1.703-0.193,1.703,1.659c0.003,14.161,0.002,28.321,0.003,42.482c0,0.366,0.019,0.733,0.029,1.1
		c-0.15,0.165-0.336,0.22-0.558,0.22c-4.709-0.004-9.419,0.011-14.128-0.007c-0.174,0-0.292-0.099-0.429-0.169l0.04,0.04
		c-0.544-0.6-0.525-1.347-0.525-2.08c-0.009-13.733-0.009-27.466,0-41.199c0-0.627-0.021-1.263,0.283-1.846
		C146.244,223.568,146.314,223.49,146.385,223.412z"/>
	<path fill-rule="evenodd" clip-rule="evenodd" fill="#B8C2F9" d="M297.285,155.681c-7.44-0.008-14.881-0.016-22.321-0.024
		c-0.125-0.216-0.08-0.385,0.137-0.509c0.629-0.334,1.317-0.291,1.993-0.292c6.06-0.01,12.12-0.012,18.179,0.003
		c0.768,0.002,1.585-0.126,2.23,0.484c5.5,0.008,11.001,0.016,16.501,0.023c1.624,0.002,3.248-0.01,4.872,0.003
		c1.365,0.012,1.384,0.024,1.386,1.414c0.011,7.072,0.011,14.145,0.014,21.217c-0.367,0.303-0.805,0.179-1.212,0.179
		c-6.714,0.008-13.429-0.022-20.144,0.033c-1.166,0.009-1.512-0.285-1.501-1.479c0.06-6.452,0.033-12.905,0.021-19.357
		C297.438,156.812,297.591,156.222,297.285,155.681z"/>
	<path fill-rule="evenodd" clip-rule="evenodd" fill="#FAAE5C" d="M252.265,132.988c-0.021,2.25-0.061,4.499-0.062,6.749
		c-0.002,5.183,0.015,10.365,0.023,15.547c-0.338,0.374-0.786,0.214-1.183,0.214c-7.059,0.003-14.118,0.021-21.177-0.002
		c-0.228-0.018-0.375-0.136-0.443-0.354c-0.043-7.145-0.008-14.29-0.014-21.435c0-0.349-0.124-0.74,0.217-1.024
		c7.432-0.012,14.864-0.024,22.296-0.037c0.059-0.035,0.117-0.07,0.176-0.105c0.062,0.028,0.125,0.057,0.187,0.085
		C252.368,132.75,252.357,132.871,252.265,132.988z"/>
	<path fill-rule="evenodd" clip-rule="evenodd" fill="#5674B9" d="M297.676,64.642c6.821,0.011,13.642,0.021,20.463,0.032
		c0.42,0,0.84,0.017,1.259-0.001c0.599-0.027,0.867,0.24,0.837,0.839c-0.018,0.366-0.002,0.734-0.001,1.102
		c0.011,6.873,0.021,13.747,0.032,20.62c-0.333,0.388-0.782,0.221-1.178,0.221c-7.06,0.004-14.119,0.021-21.179-0.002
		c-0.228-0.019-0.375-0.136-0.444-0.354c-0.043-7.146-0.008-14.292-0.013-21.438C297.453,65.313,297.323,64.919,297.676,64.642z"/>
	<path fill-rule="evenodd" clip-rule="evenodd" fill="#ABD273" d="M274.928,110.306c-0.004,7.462-0.007,14.923-0.011,22.384
		c-0.093,0.043-0.186,0.086-0.279,0.13c-7.012,0.009-14.024,0.004-21.036-0.002c-0.46,0-0.945,0.125-1.378-0.152l0.021,0.021
		c-0.278-0.434-0.152-0.918-0.153-1.378c-0.004-7.012-0.015-14.023,0.001-21.035c0.046-0.091,0.093-0.182,0.14-0.274
		c7.457-0.006,14.914-0.012,22.37-0.018c0.057-0.041,0.113-0.081,0.17-0.122c0.063,0.028,0.127,0.056,0.191,0.084
		C275.046,110.075,275.034,110.195,274.928,110.306z"/>
	<path fill-rule="evenodd" clip-rule="evenodd" d="M410.987,87.32c6.921,0.014,13.842,0.022,20.764,0.045
		c2.18,0.007,1.87-0.268,1.877,1.951c0.021,6.869,0.025,13.738,0.035,20.607c-0.288,0.335-0.68,0.215-1.03,0.216
		c-6.915,0.006-13.83,0.005-20.745,0.002c-0.309,0-0.634,0.059-0.9-0.173l0.04,0.04c-0.544-0.601-0.526-1.348-0.527-2.081
		c-0.01-6.189-0.01-12.378,0-18.566c0.001-0.735-0.012-1.481,0.533-2.079L410.987,87.32z"/>
	<path fill-rule="evenodd" clip-rule="evenodd" fill="#F16D7E" d="M229.547,87.316c5.458,0.011,10.917,0.023,16.376,0.033
		c1.575,0.003,3.149-0.004,4.724,0.002c1.538,0.005,1.545,0.01,1.548,1.549c0.015,7.033,0.024,14.066,0.036,21.1
		c0,0,0.013-0.022,0.013-0.022c-0.376,0.277-0.812,0.16-1.221,0.16c-6.716,0.007-13.433-0.023-20.148,0.032
		c-1.167,0.01-1.51-0.286-1.499-1.48c0.061-7.03,0.02-14.062,0.034-21.093C229.457,87.503,229.502,87.41,229.547,87.316z"/>
	<path fill-rule="evenodd" clip-rule="evenodd" fill="#C6A5F4" d="M297.646,87.627c-0.021,2.252-0.059,4.505-0.062,6.757
		c-0.005,5.189,0.006,10.378,0.01,15.566c-0.256,0.253-0.584,0.19-0.892,0.19c-7.018,0.003-14.035,0.003-21.053,0.002
		c-0.262,0-0.524,0.005-0.758-0.142l0.017,0.017c-0.107-0.186-0.142-0.387-0.142-0.601c-0.001-7.123,0-14.245,0-21.367
		c0-0.263-0.007-0.525,0.191-0.735c7.129,0.004,14.257,0.009,21.385,0.009c0.313,0,0.626-0.04,0.939-0.061
		c0.13-0.112,0.24-0.09,0.331,0.05l-0.018-0.019c0.103,0.06,0.144,0.129,0.125,0.208C297.7,87.585,297.675,87.627,297.646,87.627z"
		/>
	<path fill-rule="evenodd" clip-rule="evenodd" fill="#00BEF2" d="M297.503,155.344c-7.517,0.003-15.033,0.007-22.55,0.011
		c-0.247-0.26-0.184-0.587-0.185-0.895c-0.003-6.963-0.002-13.925,0-20.889c0-0.309-0.06-0.633,0.169-0.901l-0.021,0.021
		c5.508,0.01,11.017,0.02,16.524,0.028c1.521,0.003,3.043-0.003,4.564,0.002c1.536,0.005,1.546,0.008,1.543,1.536
		C297.537,141.286,297.519,148.315,297.503,155.344z"/>
	<path fill-rule="evenodd" clip-rule="evenodd" fill="#1CBBB3" d="M206.951,64.645c5.448,0.01,10.896,0.022,16.344,0.031
		c1.415,0.002,2.829-0.007,4.243,0.002c2.168,0.015,1.966-0.247,1.968,1.895c0.006,6.339,0.001,12.678,0.004,19.017
		c0,0.576,0.024,1.151,0.037,1.727l0.015-0.021c-0.428,0.298-0.915,0.16-1.374,0.161c-6.646,0.009-13.292-0.028-19.938,0.037
		c-1.257,0.012-1.567-0.343-1.556-1.572c0.06-6.646,0.024-13.292,0.038-19.938C206.734,65.536,206.544,65.035,206.951,64.645z"/>
	<path fill-rule="evenodd" clip-rule="evenodd" fill="#A664A8" d="M229.58,155.668c-0.021,2.354-0.06,4.708-0.061,7.062
		c-0.002,5.077,0.015,10.154,0.025,15.231c-0.392,0.402-0.893,0.215-1.341,0.216c-6.648,0.013-13.296-0.024-19.944,0.039
		c-1.242,0.012-1.577-0.319-1.565-1.564c0.062-6.647,0.025-13.296,0.039-19.945c0.001-0.448-0.184-0.948,0.214-1.342
		c7.432-0.012,14.863-0.023,22.295-0.035c0.125-0.132,0.23-0.119,0.316,0.042l-0.021-0.021c0.115,0.056,0.159,0.123,0.134,0.197
		C229.645,155.628,229.614,155.668,229.58,155.668z"/>
	<path fill-rule="evenodd" clip-rule="evenodd" d="M161.582,41.97c5.495,0.01,10.99,0.021,16.485,0.03
		c1.57,0.002,3.141,0.005,4.711-0.001c1.426-0.006,1.366-0.06,1.367,1.367c0.006,7.065,0.019,14.13,0.028,21.196
		c-0.397,0.393-0.898,0.211-1.348,0.212c-6.668,0.013-13.336-0.021-20.003,0.037c-1.18,0.01-1.498-0.307-1.488-1.488
		c0.058-6.72,0.025-13.439,0.035-20.16C161.37,42.761,161.216,42.313,161.582,41.97z"/>
	<path fill-rule="evenodd" clip-rule="evenodd" d="M116.22,208.296c9.387,0.01,18.772,0.013,28.159,0.035
		c2.276,0.005,1.944-0.318,1.959,2.026c0.028,4.352,0.033,8.703,0.047,13.055l0.039-0.046c-0.598,0.545-1.345,0.534-2.08,0.535
		c-8.708,0.009-17.417,0.009-26.125,0c-0.734-0.001-1.481,0.016-2.082-0.528l0.039,0.04c-0.368-0.801-0.157-1.647-0.163-2.469
		c-0.028-3.715-0.021-7.431-0.002-11.146C116.014,209.297,115.809,208.747,116.22,208.296z"/>
	<path fill-rule="evenodd" clip-rule="evenodd" d="M184.262,208.296c9.387,0.01,18.772,0.013,28.159,0.035
		c2.276,0.005,1.944-0.319,1.959,2.026c0.028,4.352,0.033,8.703,0.047,13.055l0.039-0.046c-0.599,0.545-1.345,0.534-2.08,0.535
		c-8.708,0.009-17.417,0.009-26.125,0c-0.734-0.001-1.481,0.016-2.082-0.528l0.04,0.04c-0.368-0.801-0.157-1.647-0.163-2.469
		c-0.028-3.715-0.022-7.431-0.002-11.146C184.056,209.297,183.851,208.747,184.262,208.296z"/>
	<path fill-rule="evenodd" clip-rule="evenodd" d="M252.305,208.296c9.385,0.01,18.769,0.013,28.154,0.035
		c2.281,0.005,1.95-0.321,1.963,2.021c0.026,4.351,0.028,8.702,0.04,13.053c-0.093,0.045-0.186,0.09-0.279,0.135
		c-9.53,0.016-19.061,0.005-28.591,0c-0.458,0-0.947,0.141-1.371-0.169l0.04,0.04c-0.368-0.801-0.157-1.647-0.164-2.469
		c-0.028-3.715-0.021-7.431-0.001-11.146C252.099,209.297,251.894,208.747,252.305,208.296z"/>
	<path fill-rule="evenodd" clip-rule="evenodd" d="M373.27,208.296c9.385,0.01,18.77,0.013,28.153,0.035
		c2.281,0.005,1.95-0.322,1.965,2.021c0.025,4.351,0.027,8.702,0.039,13.053c-0.093,0.045-0.186,0.09-0.278,0.135
		c-9.53,0.016-19.061,0.005-28.592,0c-0.458,0-0.945,0.141-1.37-0.169l0.039,0.04c-0.367-0.801-0.156-1.647-0.163-2.469
		c-0.028-3.715-0.021-7.431-0.002-11.146C373.063,209.297,372.858,208.747,373.27,208.296z"/>
	<path fill-rule="evenodd" clip-rule="evenodd" d="M441.312,208.296c9.386,0.01,18.772,0.013,28.158,0.035
		c2.276,0.005,1.944-0.319,1.959,2.026c0.027,4.352,0.032,8.703,0.047,13.055l0.039-0.046c-0.421,0.323-0.911,0.174-1.367,0.174
		c-9.161,0.009-18.322-0.012-27.483,0.031c-1.171,0.005-1.637-0.205-1.607-1.524c0.095-4.133,0.029-8.271,0.044-12.406
		C441.104,209.192,440.923,208.693,441.312,208.296z"/>
	<path fill-rule="evenodd" clip-rule="evenodd" d="M584.96,208.293c9.368,0.011,18.736,0.016,28.104,0.038
		c2.338,0.005,1.998-0.313,2.012,1.967c0.025,4.343,0.024,8.687,0.035,13.03c-0.395,0.393-0.894,0.211-1.342,0.211
		c-9.514,0.007-19.027,0.02-28.54,0.001c-0.227-0.006-0.383-0.114-0.467-0.324c-0.054-4.633-0.011-9.268-0.018-13.901
		C584.743,208.967,584.618,208.576,584.96,208.293z"/>
	<path fill-rule="evenodd" clip-rule="evenodd" d="M584.957,268.778c9.8,0.009,19.601,0.019,29.4,0.023
		c0.153,0,0.307-0.055,0.459-0.085c0.061-0.031,0.12-0.062,0.18-0.093c0.062,0.028,0.122,0.057,0.184,0.085
		c0.078,0.123,0.08,0.245-0.007,0.364c-0.203,1.824-0.075,3.654-0.086,5.48c-0.018,3.085,0.013,6.172,0.023,9.258
		c-0.453,0.411-1.005,0.209-1.507,0.209c-9.082,0.014-18.164-0.017-27.246,0.041c-1.306,0.008-1.677-0.341-1.649-1.648
		c0.083-4.093,0.024-8.189,0.039-12.284C584.749,269.677,584.568,269.177,584.957,268.778z"/>
	<path fill-rule="evenodd" clip-rule="evenodd" d="M471.526,269.072c-0.2,1.929-0.073,3.863-0.085,5.794
		c-0.018,2.981,0.013,5.962,0.023,8.943c-0.452,0.413-1.004,0.209-1.505,0.21c-9.075,0.014-18.15-0.014-27.226,0.039
		c-1.271,0.007-1.7-0.278-1.675-1.625c0.084-4.458,0.042-8.917,0.026-13.376c0.02-0.224,0.125-0.394,0.316-0.51
		c0.734-0.368,1.53-0.292,2.31-0.292c8.416-0.008,16.832-0.008,25.249,0.001c0.877,0.001,1.796-0.127,2.549,0.518l-0.04-0.04
		c0.107,0.06,0.152,0.13,0.133,0.21C471.582,269.029,471.557,269.072,471.526,269.072z"/>
	<path fill-rule="evenodd" clip-rule="evenodd" d="M214.477,269.072c-0.2,1.929-0.074,3.863-0.085,5.794
		c-0.018,2.981,0.013,5.962,0.023,8.943c-0.396,0.392-0.895,0.211-1.345,0.212c-9.161,0.011-18.323-0.015-27.484,0.036
		c-1.227,0.007-1.6-0.294-1.574-1.556c0.083-4.134,0.026-8.271,0.039-12.407c0.001-0.457-0.149-0.946,0.174-1.367l-0.049,0.049
		c0.602-0.54,1.349-0.525,2.083-0.525c8.706-0.01,17.411-0.01,26.117,0c0.734,0,1.48-0.014,2.085,0.521l-0.04-0.04
		c0.107,0.06,0.152,0.13,0.133,0.21C214.533,269.029,214.507,269.072,214.477,269.072z"/>
	<path fill-rule="evenodd" clip-rule="evenodd" d="M584.881,238.533c9.001,0.011,18.003,0.013,27.004,0.049
		c1.023,0.004,2.323-0.481,3.004,0.25c0.602,0.646,0.175,1.899,0.183,2.884c0.031,3.977,0.032,7.954,0.044,11.931
		c-0.093,0.045-0.186,0.091-0.278,0.136c-9.543,0.016-19.086-0.018-28.628,0.033c-1.165,0.006-1.52-0.281-1.499-1.478
		c0.075-4.508,0.02-9.018,0.035-13.527C584.79,238.718,584.835,238.625,584.881,238.533z"/>
	<path fill-rule="evenodd" clip-rule="evenodd" d="M33.057,4.168c1.883,0.01,3.766,0.016,5.649,0.031
		c1.992,0.016,1.788-0.236,1.79,1.721c0.006,6.33,0.002,12.66,0.002,18.99c0,0.262,0.001,0.523,0,0.785
		c-0.011,1.285-0.055,1.207,1.189,1.181c2.036-0.042,4.075,0.119,6.109-0.088c0.06-0.031,0.119-0.062,0.179-0.094
		c0.061,0.029,0.123,0.057,0.184,0.086c0.08,0.123,0.077,0.244-0.008,0.364c-0.188,2.391-0.075,4.784-0.062,7.177
		c-1.506,0.471-3.053,0.094-4.575,0.222c-0.967,0.081-1.955-0.187-2.907,0.162c-0.225,0.876-0.1,1.769-0.102,2.651
		c-0.007,4.029,0.013,8.057,0.023,12.085c-2.327,0.488-4.68,0.101-7.019,0.212c-0.451,0.021-0.67-0.217-0.669-0.668
		c0.001-0.315-0.003-0.63-0.003-0.945c0-14.121-0.002-28.242,0.01-42.363C32.848,5.174,32.647,4.622,33.057,4.168z"/>
	<path fill-rule="evenodd" clip-rule="evenodd" d="M10.376,4.168c2.095,0.01,4.19,0.013,6.286,0.033
		c1.124,0.011,1.142,0.024,1.151,1.104c0.015,1.886,0.024,3.772-0.006,5.658c-0.01,0.611,0.194,0.816,0.806,0.806
		c1.886-0.03,3.772-0.021,5.658-0.006c1.08,0.008,1.093,0.027,1.104,1.15c0.021,2.095,0.023,4.19,0.034,6.286
		c-1.506,0.471-3.053,0.094-4.575,0.222c-0.968,0.081-1.955-0.187-2.907,0.162c-0.035,0.151-0.1,0.302-0.1,0.453
		c0.006,7.308,0.018,14.616,0.028,21.924c-0.093,0.044-0.186,0.089-0.278,0.134c-2.046,0.015-4.094-0.053-6.136,0.029
		c-1.066,0.043-1.312-0.335-1.305-1.347c0.041-6.608-0.014-13.218,0.052-19.826c0.013-1.26-0.336-1.635-1.577-1.557
		c-1.671,0.106-3.355,0.028-5.033,0.025c-0.484-0.001-1.009,0.03-0.974-0.683c0.114-2.335-0.277-4.686,0.216-7.009
		c2.392,0.008,4.785,0.143,7.174-0.077c0.375-1.942,0.045-3.903,0.172-5.851C10.201,5.255,9.941,4.663,10.376,4.168z"/>
	<path fill-rule="evenodd" clip-rule="evenodd" d="M93.512,27.143c-0.187,2.391-0.075,4.784-0.062,7.177
		c-0.446,0.416-0.994,0.207-1.49,0.209c-4.009,0.019-8.018,0.005-12.027,0.018c-0.508,0.002-1.043-0.146-1.525,0.156
		c-0.222,2.417-0.089,4.836-0.073,7.255c-0.093,0.045-0.186,0.09-0.279,0.136c-2.098,0.015-4.197-0.02-6.295,0.018
		c-0.755,0.013-1.141-0.136-1.137-1.022c0.029-7.082,0.013-14.164,0.015-21.245c0-0.223,0.054-0.41,0.223-0.558
		c2.392,0.015,4.785,0.125,7.175-0.06c0.096-0.01,0.191-0.021,0.287-0.031c0.154,0.12,0.265,0.271,0.335,0.453
		c0.275,1.028,0.15,2.081,0.162,3.123c0.046,3.962-0.405,3.542,3.665,3.586c3.452,0.038,6.905-0.111,10.356,0.081
		c0.187,0.038,0.36,0.11,0.522,0.211C93.532,26.778,93.581,26.943,93.512,27.143z"/>
	<path fill-rule="evenodd" clip-rule="evenodd" d="M547.072,268.767c4.35,0.014,8.698,0.027,13.048,0.041
		c0.366,0.001,0.737,0.036,1.099-0.007c0.804-0.093,0.984,0.307,0.949,1.019c-0.044,0.889-0.013,1.781-0.01,2.672
		c0.009,3.773,0.02,7.545,0.03,11.318c-0.151,0.163-0.337,0.219-0.559,0.22c-4.549,0.002-9.097-0.009-13.645,0.009
		c-0.678,0.003-1.068-0.107-1.062-0.929c0.039-4.705-0.012-9.409,0.038-14.114c0.001-0.09,0.103-0.179,0.156-0.268L547.072,268.767z
		"/>
	<path fill-rule="evenodd" clip-rule="evenodd" d="M335.384,268.767c4.401,0.014,8.803,0.027,13.205,0.042
		c0.366,0.001,0.734,0.023,1.1-0.004c0.641-0.046,0.823,0.283,0.785,0.857c-0.024,0.365-0.005,0.733-0.005,1.1
		c0.011,4.349,0.021,8.699,0.031,13.048c-0.15,0.164-0.337,0.22-0.559,0.22c-4.548,0.002-9.096-0.009-13.645,0.009
		c-0.677,0.003-1.068-0.106-1.061-0.928c0.039-4.705-0.012-9.41,0.038-14.114c0.001-0.09,0.102-0.179,0.156-0.268L335.384,268.767z"
		/>
	<path fill-rule="evenodd" clip-rule="evenodd" d="M615.115,253.646c4.349,0.014,8.698,0.028,13.047,0.042
		c0.366,0.001,0.737,0.036,1.1-0.006c0.804-0.093,0.984,0.307,0.949,1.018c-0.045,0.888-0.013,1.781-0.011,2.672
		c0.01,3.773,0.021,7.546,0.031,11.319c-0.15,0.165-0.338,0.219-0.559,0.219c-4.71-0.004-9.42,0.011-14.129-0.007
		c-0.174,0-0.291-0.099-0.429-0.169l0.04,0.04c-0.368-0.749-0.159-1.546-0.164-2.316c-0.025-3.774-0.019-7.549-0.003-11.324
		c0.002-0.509-0.169-1.051,0.173-1.526L615.115,253.646z"/>
	<path fill-rule="evenodd" clip-rule="evenodd" d="M494.234,193.176c4.546,0.01,9.092,0.023,13.638,0.028
		c1.424,0.001,1.364-0.058,1.366,1.365c0.003,4.546,0.018,9.092,0.028,13.638c-0.191,0.23-0.456,0.22-0.719,0.22
		c-4.463,0.002-8.926-0.021-13.388,0.018c-0.893,0.008-1.17-0.269-1.163-1.162c0.039-4.462,0.017-8.925,0.019-13.388
		C494.016,193.631,494.005,193.368,494.234,193.176z"/>
	<path fill-rule="evenodd" clip-rule="evenodd" d="M282.462,223.405c4.401,0.014,8.802,0.028,13.204,0.042
		c0.367,0.001,0.735,0.022,1.1-0.004c0.641-0.046,0.823,0.283,0.785,0.857c-0.024,0.365-0.004,0.733-0.004,1.101
		c0.01,4.349,0.02,8.698,0.03,13.047c-0.15,0.164-0.336,0.22-0.558,0.22c-4.548,0.003-9.096-0.009-13.645,0.009
		c-0.677,0.002-1.068-0.106-1.061-0.928c0.039-4.705-0.012-9.409,0.038-14.114c0.001-0.09,0.102-0.179,0.156-0.268L282.462,223.405z
		"/>
	<path fill-rule="evenodd" clip-rule="evenodd" d="M426.191,253.658c4.913,0.01,9.826,0.129,14.739-0.062
		c0.135-0.115,0.246-0.09,0.338,0.057l-0.039-0.04c0.494,0.555,0.515,1.241,0.517,1.925c0.013,3.772,0.014,7.543,0,11.315
		c-0.002,0.685-0.022,1.371-0.521,1.924l0.049-0.049c-1.064,0.392-2.166,0.157-3.247,0.168c-3.607,0.036-7.215,0.013-10.821,0.014
		c-0.63,0-1.256,0.121-1.247-0.892c0.04-4.652-0.004-9.305,0.023-13.958C425.983,253.877,426.108,253.785,426.191,253.658z"/>
	<path fill-rule="evenodd" clip-rule="evenodd" d="M569.836,223.416c4.913,0.011,9.827,0.131,14.74-0.062
		c0.135-0.111,0.247-0.092,0.338,0.058l-0.04-0.04c0.107,0.059,0.151,0.129,0.133,0.209c-0.02,0.086-0.045,0.128-0.075,0.128
		c-0.212,1.763-0.076,3.532-0.085,5.298c-0.016,3.175,0.02,6.35,0.034,9.525l0.039-0.046c-1.063,0.392-2.166,0.157-3.247,0.168
		c-3.606,0.036-7.214,0.013-10.821,0.014c-0.629,0-1.256,0.122-1.247-0.892c0.039-4.652-0.004-9.305,0.023-13.958
		C569.629,223.636,569.753,223.543,569.836,223.416z"/>
	<path fill-rule="evenodd" clip-rule="evenodd" d="M403.427,223.405c4.401,0.014,8.803,0.028,13.204,0.042
		c0.366,0.001,0.735,0.023,1.1-0.004c0.642-0.046,0.823,0.283,0.786,0.857c-0.024,0.365-0.006,0.733-0.005,1.101
		c0.011,4.349,0.021,8.698,0.031,13.047c-0.15,0.164-0.337,0.22-0.559,0.22c-4.549,0.002-9.097-0.009-13.645,0.009
		c-0.677,0.002-1.068-0.106-1.062-0.928c0.039-4.705-0.013-9.409,0.038-14.114c0.001-0.09,0.103-0.179,0.156-0.268L403.427,223.405z
		"/>
	<path fill-rule="evenodd" clip-rule="evenodd" d="M55.659,26.844c1.99,0.012,3.981,0.026,5.971,0.035
		c1.664,0.008,1.548-0.137,1.548,1.501c0,6.497-0.001,12.994,0.001,19.491c0,0.523,0.019,1.047,0.029,1.57
		c-2.324,0.488-4.675,0.103-7.011,0.213c-0.707,0.033-0.679-0.491-0.68-0.974c-0.001-0.997-0.001-1.993,0-2.99
		c0.004-6.189-0.008-12.378,0.006-18.567C55.569,27.03,55.614,26.937,55.659,26.844z"/>
	<path fill-rule="evenodd" clip-rule="evenodd" d="M78.334,41.958c6.917,0.014,13.834,0.022,20.75,0.044
		c2.186,0.007,1.87-0.27,1.893,1.937c0.02,1.833,0.022,3.667,0.033,5.501c-0.341,0.367-0.787,0.213-1.186,0.214
		c-6.744,0.01-13.487-0.016-20.23,0.03c-1.074,0.007-1.503-0.248-1.413-1.383c0.169-2.122-0.201-4.264,0.199-6.382L78.334,41.958z"
		/>
	<path fill-rule="evenodd" clip-rule="evenodd" d="M78.418,11.729c4.502,0.01,9.005,0.021,13.508,0.029
		c1.639,0.003,1.486-0.103,1.494,1.554c0.009,1.989,0.024,3.978,0.036,5.967c-0.078,0.067-0.156,0.135-0.233,0.204
		c-0.633,0.325-1.321,0.277-1.997,0.278c-3.553,0.01-7.106,0.011-10.66,0c-0.778-0.002-1.583,0.068-2.231-0.516l0.039,0.04
		C78.104,16.764,78.04,14.245,78.418,11.729z"/>
	<path fill-rule="evenodd" clip-rule="evenodd" fill="#FDFDFD" d="M456.433,19.289c-0.19,0.562-0.114,1.145-0.114,1.718
		c-0.004,51.794-0.005,103.587,0.001,155.38c0,1.96-0.271,1.688,1.624,1.692c6.454,0.013,12.908,0.007,19.363,0.002
		c0.574-0.001,1.156,0.076,1.719-0.116c-0.25,0.476-0.703,0.383-1.11,0.383c-6.876,0.004-13.752,0.009-20.628-0.003
		c-1.194-0.002-1.199-0.041-1.237-1.265c-0.009-0.262-0.002-0.525-0.002-0.787c0-51.702-0.001-103.404,0.015-155.105
		C456.062,20.552,455.737,19.807,456.433,19.289z"/>
	<path fill-rule="evenodd" clip-rule="evenodd" fill="#FDFDFD" d="M365.672,155.324c-0.027,0.941-0.076,1.883-0.076,2.825
		c-0.008,6.14-0.009,12.279-0.001,18.419c0.003,1.723-0.221,1.514,1.49,1.514c20.465,0.005,40.931,0.008,61.396-0.006
		c1.727-0.001,3.46,0.155,5.182-0.11c-0.135,0.257-0.357,0.372-0.638,0.376c-0.472,0.008-0.944,0.009-1.417,0.009
		c-21.313,0-42.627,0-63.94,0c-0.315,0-0.631,0.005-0.945-0.001c-1.371-0.027-1.393-0.028-1.395-1.426
		c-0.009-6.3-0.004-12.6-0.004-18.899c0-0.263,0.002-0.525,0-0.788c-0.016-1.551-0.016-1.563-1.569-1.564
		c-6.353-0.005-12.704-0.002-19.056-0.002c-0.368,0-0.736-0.016-1.103,0c-0.654,0.026-0.983-0.254-0.952-0.929
		c0.015-0.314-0.001-0.63-0.001-0.945c0-21.576-0.002-43.152,0.014-64.728c0-0.584-0.29-1.279,0.375-1.739
		c-0.197,0.562-0.118,1.145-0.118,1.718c-0.003,21.568-0.003,43.137-0.003,64.705c0,0.262,0.028,0.528-0.005,0.786
		c-0.091,0.703,0.222,0.88,0.892,0.877c7.189-0.023,14.379-0.019,21.568-0.025C365.467,155.391,365.569,155.347,365.672,155.324z"/>
	<path fill-rule="evenodd" clip-rule="evenodd" fill="#FDFDFD" d="M48.177,87.332c-0.191,0.562-0.115,1.145-0.115,1.719
		c-0.003,51.793-0.004,103.587,0.001,155.38c0,1.96-0.271,1.688,1.624,1.692c6.455,0.012,12.909,0.006,19.364,0.001
		c0.573,0,1.156,0.077,1.718-0.116c-0.25,0.475-0.703,0.382-1.11,0.383c-6.876,0.003-13.752,0.009-20.628-0.003
		c-1.194-0.002-1.199-0.041-1.237-1.266c-0.008-0.262-0.001-0.525-0.001-0.787c0-51.702-0.001-103.404,0.015-155.106
		C47.808,88.595,47.481,87.849,48.177,87.332z"/>
	<path fill-rule="evenodd" clip-rule="evenodd" fill="#010101" d="M17.854,41.96c1.935,0.013,3.869,0.024,5.804,0.039
		c1.962,0.015,1.702-0.193,1.718,1.794c0.016,1.882,0.021,3.765,0.032,5.648c-2.359,0.501-4.745,0.094-7.116,0.207
		c-0.375,0.018-0.58-0.223-0.565-0.591c0.092-2.378-0.238-4.768,0.171-7.138L17.854,41.96z"/>
	<path fill-rule="evenodd" clip-rule="evenodd" fill="#010101" d="M48.177,19.289c1.883,0.01,3.766,0.015,5.648,0.031
		c1.993,0.016,1.778-0.237,1.793,1.719c0.015,1.935,0.027,3.87,0.041,5.805l0.041-0.045c-2.535,0.3-5.07,0.292-7.606,0.006
		l0.04,0.04C47.862,24.324,47.799,21.805,48.177,19.289z"/>
	<path fill-rule="evenodd" clip-rule="evenodd" fill="#010101" d="M93.457,19.278c1.935,0.013,3.869,0.026,5.804,0.041
		c1.962,0.015,1.702-0.193,1.719,1.793c0.016,1.882,0.021,3.765,0.032,5.648c-2.516,0.38-5.035,0.314-7.555,0.044l0.04,0.04
		c-0.999-1.656-0.369-3.477-0.509-5.218c-0.066-0.821-0.109-1.691,0.516-2.388L93.457,19.278z"/>
	<path fill-rule="evenodd" clip-rule="evenodd" fill="#FEFEFE" d="M547.118,268.728c-0.18,3.247-0.039,6.496-0.078,9.743
		c-0.017,1.416,0.002,2.832-0.004,4.247c-0.006,1.287-0.064,1.215,1.167,1.213c3.198-0.004,6.396,0.019,9.595-0.011
		c1.463-0.013,2.933,0.15,4.391-0.11c-0.252,0.473-0.705,0.38-1.112,0.38c-4.357,0.004-8.715,0.012-13.073-0.003
		c-1.186-0.004-1.22-0.042-1.224-1.273c-0.016-4.095-0.002-8.19-0.009-12.285c-0.003-1.54-0.015-1.551-1.58-1.554
		c-3.989-0.007-7.979,0.002-11.97-0.005c-1.552-0.002-1.565-0.014-1.565-1.569c-0.005-9.922-0.003-19.845-0.003-29.768
		c0-4.042-0.001-8.085,0.001-12.128c0-2,0.101-1.896-1.875-1.895c-3.832,0.002-7.664,0.001-11.497,0c-0.367,0-0.735,0-1.102-0.022
		c-0.356-0.022-0.582-0.213-0.623-0.581c-0.018-0.156-0.021-0.314-0.021-0.472c-0.002-4.462-0.003-8.925-0.002-13.388
		c0-0.368-0.02-0.747,0.385-0.954c-0.041,0.363-0.116,0.725-0.116,1.087c-0.009,4.299-0.003,8.599-0.007,12.898
		c-0.002,1.238-0.071,1.171,1.212,1.169c3.984-0.004,7.97-0.012,11.954,0.003c2.221,0.008,1.951-0.299,1.952,1.877
		c0.008,13.895,0.004,27.79,0.004,41.684c0,1.796,0,1.796,1.84,1.796c3.933,0,7.865,0.003,11.798-0.004
		C546.075,268.805,546.597,268.754,547.118,268.728z"/>
	<path fill-rule="evenodd" clip-rule="evenodd" fill="#FDFDFD" d="M335.43,268.728c-0.026,3.352-0.056,6.705-0.078,10.057
		c-0.009,1.311,0.003,2.622-0.003,3.932c-0.006,1.286-0.065,1.215,1.167,1.214c3.198-0.004,6.396,0.019,9.594-0.011
		c1.463-0.013,2.933,0.15,4.39-0.11c-0.249,0.475-0.702,0.382-1.108,0.383c-4.352,0.004-8.704,0.012-13.056-0.003
		c-1.208-0.004-1.241-0.038-1.246-1.25c-0.016-3.985-0.006-7.97-0.007-11.955c0-0.314-0.014-0.63,0-0.944
		c0.028-0.64-0.223-0.996-0.91-0.964c-0.366,0.017-0.734,0-1.101,0c-3.827,0-7.655,0.003-11.483-0.002
		c-1.616-0.002-1.625-0.012-1.625-1.667c-0.003-13.843,0-27.685-0.003-41.528c0-2.391,0.227-2.159-2.225-2.164
		c-3.828-0.007-7.656,0.005-11.483-0.006c-1.382-0.004-1.403-0.024-1.407-1.408c-0.011-4.247-0.008-8.494,0.001-12.742
		c0.001-0.448-0.152-0.968,0.383-1.265c-0.041,0.362-0.115,0.725-0.116,1.087c-0.008,4.299-0.002,8.598-0.007,12.897
		c-0.001,1.235-0.071,1.17,1.213,1.168c3.985-0.004,7.97-0.012,11.954,0.002c2.219,0.008,1.95-0.298,1.951,1.878
		c0.008,13.894,0.004,27.788,0.004,41.682c0,1.797,0,1.797,1.84,1.797c3.932,0,7.864,0.003,11.796-0.003
		C334.387,268.803,334.909,268.754,335.43,268.728z"/>
	<path fill-rule="evenodd" clip-rule="evenodd" fill="#FDFDFD" d="M161.582,87.332c-0.191,0.562-0.115,1.145-0.115,1.718
		c-0.003,29.115-0.005,58.23,0.001,87.346c0,1.955-0.272,1.681,1.63,1.684c6.453,0.013,12.905,0.007,19.358,0.002
		c0.574-0.001,1.155,0.076,1.717-0.116c-0.249,0.476-0.702,0.383-1.109,0.383c-6.875,0.004-13.75,0.009-20.625-0.003
		c-1.198-0.002-1.202-0.04-1.241-1.262c-0.008-0.262-0.001-0.525-0.001-0.787c0-29.022-0.002-58.044,0.015-87.067
		C161.212,88.595,160.886,87.849,161.582,87.332z"/>
	<path fill-rule="evenodd" clip-rule="evenodd" fill="#FDFDFD" d="M206.951,64.645c-0.04,0.467-0.115,0.934-0.115,1.4
		c-0.008,6.595-0.005,13.19-0.005,19.785c0,0.314,0.006,0.628,0.01,0.942c0.005,0.383,0.209,0.567,0.584,0.574
		c0.209,0.004,0.419,0.01,0.628,0.01c6.909,0,13.817,0,20.727-0.004c0.26,0,0.521-0.037,0.782-0.056
		c-0.014,7.192-0.033,14.384-0.036,21.576c0,1.116,0.035,1.152,1.144,1.152c7.191-0.006,14.383-0.028,21.575-0.045
		c0,7.57,0,15.14-0.001,22.709c-0.107-0.014-0.215-0.028-0.322-0.043c0-6.772,0-13.545,0-20.318c0-0.419-0.01-0.84-0.011-1.26
		c-0.001-0.53-0.291-0.749-0.792-0.751c-0.42-0.002-0.84-0.009-1.26-0.009c-6.195,0-12.39,0-18.585-0.001
		c-0.42,0-0.84-0.009-1.26-0.01c-0.523-0.001-0.761-0.274-0.763-0.782c-0.001-0.42-0.009-0.84-0.009-1.26
		c-0.001-6.195,0-12.39-0.001-18.585c0-0.42-0.009-0.84-0.01-1.26c-0.001-0.514-0.254-0.772-0.771-0.773
		c-0.42,0-0.84-0.009-1.26-0.009c-6.195,0-12.39,0-18.584,0c-0.368,0-0.736-0.016-1.103,0c-0.653,0.027-0.986-0.25-0.952-0.927
		c0.013-0.262-0.001-0.525-0.001-0.788c0-6.562-0.006-13.125,0.011-19.688C206.573,65.687,206.317,65.046,206.951,64.645z"/>
	<path fill-rule="evenodd" clip-rule="evenodd" fill="#FDFDFD" d="M101.1,223.417c-0.191,0.562-0.115,1.145-0.115,1.718
		c-0.003,29.114-0.005,58.227,0.001,87.34c0,1.958-0.271,1.683,1.625,1.69c3.934,0.015,7.869,0.008,11.803,0.001
		c0.574-0.001,1.156,0.076,1.718-0.116c-0.249,0.475-0.702,0.382-1.109,0.383c-4.356,0.004-8.712,0.012-13.067-0.003
		c-1.196-0.004-1.199-0.041-1.238-1.265c-0.008-0.262-0.001-0.524-0.001-0.787c0-29.021-0.002-58.043,0.015-87.064
		C100.729,224.68,100.403,223.934,101.1,223.417z"/>
	<path fill-rule="evenodd" clip-rule="evenodd" fill="#FDFDFD" d="M184.224,268.728c-0.182,3.405-0.035,6.813-0.077,10.219
		c-0.018,1.416,0.014,2.833-0.01,4.249c-0.009,0.526,0.147,0.794,0.71,0.735c0.207-0.021,0.419-0.002,0.628-0.002
		c9.179,0,18.357,0,27.536-0.001c0.47,0,0.946,0.049,1.403-0.118c-0.461,0.662-1.155,0.371-1.739,0.372
		c-8.451,0.02-16.903,0.014-25.354,0.014c-0.735,0-1.47,0.015-2.205-0.003c-1.195-0.031-1.227-0.043-1.233-1.269
		c-0.016-3.464-0.005-6.929-0.006-10.394c0-0.735,0.014-1.47-0.003-2.204c-0.03-1.209-0.039-1.239-1.252-1.245
		c-3.36-0.016-6.719-0.005-10.079-0.006c-0.945,0-1.89-0.016-2.834,0.001c-0.655,0.012-0.982-0.258-0.951-0.931
		c0.015-0.314-0.001-0.629-0.001-0.945c0-14.016-0.004-28.031,0.014-42.046c0.001-0.584-0.289-1.279,0.375-1.739
		c-0.185,0.509-0.119,1.039-0.119,1.561c-0.003,14.113-0.002,28.226-0.002,42.339c0,0.262,0.022,0.527-0.003,0.787
		c-0.055,0.559,0.201,0.72,0.732,0.713C174.576,268.754,179.401,268.909,184.224,268.728z"/>
	<path fill-rule="evenodd" clip-rule="evenodd" fill="#FEFEFE" d="M569.836,223.416c-0.236,0.931-0.106,1.879-0.11,2.818
		c-0.018,3.775-0.007,7.55-0.008,11.325c-0.001,0.521-0.114,1.035,0.74,1.021c4.82-0.077,9.643,0.091,14.462-0.094
		c-0.027,2.09-0.067,4.181-0.078,6.271c-0.013,2.563,0,5.127-0.004,7.691c-0.003,1.385-0.046,1.237,1.291,1.24
		c0.21,0,0.419,0,0.628,0c8.896,0,17.791,0.001,26.687-0.003c0.572,0,1.146-0.051,1.718-0.078c-0.187,2.709-0.057,5.42-0.073,8.131
		c-0.014,2.345,0.042,4.69,0.067,7.036c-0.113-0.019-0.226-0.038-0.339-0.058c0-4.356,0.002-8.712-0.002-13.069
		c-0.002-1.687-0.009-1.693-1.757-1.693c-8.712-0.003-17.425-0.001-26.137-0.001c-0.315,0-0.63,0.005-0.945-0.001
		c-1.374-0.026-1.394-0.028-1.397-1.421c-0.011-4.042,0-8.083-0.006-12.124c-0.003-1.557-0.014-1.569-1.562-1.572
		c-3.884-0.007-7.768-0.001-11.651-0.003c-0.42,0-0.841,0-1.259-0.022c-0.356-0.02-0.582-0.213-0.622-0.582
		c-0.018-0.156-0.021-0.314-0.021-0.471c-0.002-4.461-0.003-8.923-0.002-13.384C569.455,224.004,569.433,223.625,569.836,223.416z"
		/>
	<path fill-rule="evenodd" clip-rule="evenodd" fill="#FDFDFD" d="M494.234,223.417c-0.179,0.51-0.115,1.039-0.115,1.561
		c-0.003,19.14-0.005,38.28,0,57.42c0.001,1.733-0.211,1.524,1.474,1.528c4.038,0.009,8.076,0.005,12.113,0
		c0.521,0,1.051,0.063,1.56-0.117c-0.249,0.476-0.702,0.382-1.108,0.383c-4.355,0.004-8.711,0.012-13.065-0.003
		c-1.198-0.004-1.201-0.04-1.241-1.262c-0.007-0.209-0.001-0.419-0.001-0.63c0-19.047-0.003-38.094,0.014-57.141
		C493.863,224.572,493.574,223.879,494.234,223.417z"/>
	<path fill-rule="evenodd" clip-rule="evenodd" fill="#FDFDFD" d="M237.185,223.417c-0.179,0.51-0.116,1.039-0.116,1.561
		c-0.002,19.14-0.004,38.28,0,57.42c0,1.733-0.211,1.524,1.474,1.528c4.038,0.009,8.076,0.005,12.113,0
		c0.522,0,1.051,0.063,1.56-0.117c-0.25,0.476-0.703,0.382-1.109,0.383c-4.355,0.004-8.71,0.012-13.065-0.003
		c-1.198-0.004-1.201-0.04-1.241-1.262c-0.006-0.209-0.001-0.419-0.001-0.63c0-19.047-0.003-38.094,0.014-57.141
		C236.813,224.572,236.524,223.879,237.185,223.417z"/>
	<path fill-rule="evenodd" clip-rule="evenodd" fill="#FDFDFD" d="M426.191,253.658c-0.236,0.931-0.106,1.879-0.11,2.818
		c-0.018,3.774-0.007,7.549-0.008,11.323c-0.001,0.521-0.113,1.035,0.741,1.021c4.819-0.076,9.641,0.09,14.46-0.092
		c-0.183,3.405-0.035,6.813-0.077,10.219c-0.018,1.416,0.014,2.833-0.01,4.249c-0.01,0.526,0.147,0.794,0.709,0.735
		c0.207-0.021,0.42-0.002,0.629-0.002c9.179,0,18.357,0,27.536-0.001c0.471,0,0.946,0.049,1.403-0.118
		c-0.462,0.662-1.155,0.371-1.739,0.372c-8.398,0.02-16.796,0.014-25.193,0.014c-0.788,0-1.575,0.016-2.362-0.004
		c-1.198-0.03-1.23-0.042-1.236-1.264c-0.017-3.307-0.006-6.613-0.007-9.92c0-0.893,0.016-1.785-0.004-2.677
		c-0.026-1.214-0.037-1.243-1.246-1.25c-3.097-0.018-6.193-0.006-9.29-0.006c-1.05,0-2.1,0.01-3.149-0.002
		c-1.401-0.018-1.42-0.025-1.426-1.393c-0.014-2.677-0.005-5.354-0.005-8.03c0-1.574-0.01-3.149,0.006-4.724
		C425.817,254.477,425.657,253.958,426.191,253.658z"/>
	<path fill-rule="evenodd" clip-rule="evenodd" fill="#FDFDFD" d="M358.149,223.417c-0.18,0.51-0.116,1.039-0.116,1.561
		c-0.003,19.14-0.004,38.28,0.001,57.42c0,1.733-0.211,1.524,1.474,1.528c4.037,0.009,8.075,0.005,12.113,0
		c0.521,0,1.051,0.063,1.56-0.117c-0.249,0.475-0.702,0.382-1.109,0.383c-4.354,0.004-8.71,0.012-13.065-0.003
		c-1.197-0.004-1.2-0.04-1.24-1.262c-0.007-0.209-0.002-0.419-0.002-0.63c0-19.047-0.003-38.094,0.014-57.141
		C357.778,224.572,357.489,223.879,358.149,223.417z"/>
	<path fill-rule="evenodd" clip-rule="evenodd" fill="#FDFDFD" d="M78.38,41.919c-0.026,2.304-0.042,4.608-0.087,6.911
		c-0.01,0.531,0.153,0.785,0.713,0.733c0.312-0.029,0.628-0.004,0.943-0.004c6.448,0,12.896,0.002,19.345-0.003
		c0.573,0,1.155,0.077,1.717-0.116c-0.25,0.476-0.703,0.383-1.11,0.383c-6.875,0.003-13.751,0.008-20.627-0.003
		c-1.196-0.002-1.22-0.04-1.235-1.264c-0.021-1.731-0.032-3.464,0.004-5.195c0.017-0.816-0.295-1.121-1.107-1.104
		c-1.731,0.036-3.464,0.025-5.196,0.004c-1.221-0.015-1.258-0.039-1.261-1.238c-0.012-6.875-0.007-13.751-0.003-20.626
		c0-0.408-0.09-0.86,0.385-1.109c-0.04,0.362-0.116,0.725-0.116,1.087c-0.007,6.816-0.003,13.631-0.007,20.447
		c-0.001,1.286-0.042,1.19,1.202,1.177C74.087,41.976,76.233,41.946,78.38,41.919z"/>
	<path fill-rule="evenodd" clip-rule="evenodd" fill="#FDFDFD" d="M17.898,41.919c-0.026,2.3-0.044,4.601-0.086,6.901
		c-0.009,0.517,0.132,0.766,0.7,0.745c2.298-0.083,4.602,0.136,6.896-0.125c-0.204,0.406-0.583,0.384-0.95,0.384
		c-1.938,0.001-3.875-0.023-5.812,0.011c-0.813,0.014-1.121-0.298-1.104-1.107c0.036-1.675,0.02-3.351,0.006-5.027
		c-0.011-1.406-0.022-1.419-1.377-1.432c-1.571-0.015-3.142,0.005-4.713-0.007c-1.447-0.011-1.463-0.021-1.465-1.507
		c-0.006-6.284-0.002-12.567-0.002-18.852c0-0.367,0.01-0.733-0.002-1.1c-0.04-1.178-0.045-1.2-1.279-1.215
		c-1.728-0.02-3.457-0.008-5.185-0.006c-0.553,0-1.085-0.021-1.083-0.782c0.005-2.199,0.009-4.397,0.022-6.596
		c0.001-0.224,0.166-0.372,0.355-0.479c-0.266,2.295-0.043,4.599-0.127,6.897c-0.021,0.568,0.227,0.708,0.745,0.701
		c1.728-0.021,3.456-0.011,5.184-0.005c1.837,0.005,1.634-0.171,1.636,1.722c0.005,6.544,0,13.089,0.003,19.634
		c0,1.471-0.137,1.33,1.364,1.32C13.715,41.983,15.807,41.946,17.898,41.919z"/>
	<path fill-rule="evenodd" clip-rule="evenodd" fill="#FDFDFD" d="M403.473,223.366c-0.026,3.352-0.057,6.705-0.078,10.057
		c-0.009,1.311,0.003,2.621-0.003,3.932c-0.006,1.286-0.065,1.215,1.167,1.213c3.198-0.004,6.396,0.019,9.594-0.011
		c1.463-0.013,2.933,0.149,4.391-0.11c-0.249,0.475-0.702,0.383-1.109,0.383c-4.354,0.004-8.709,0.012-13.062-0.003
		c-1.201-0.004-1.234-0.039-1.239-1.258c-0.015-3.987-0.006-7.974-0.007-11.961c0-0.367-0.007-0.734-0.008-1.102
		c-0.002-0.506-0.234-0.783-0.759-0.783c-0.42,0-0.84-0.01-1.259-0.01c-9.286-0.001-18.571-0.002-27.857-0.003
		c-0.019-0.113-0.037-0.226-0.056-0.338c0.311,0.025,0.622,0.071,0.935,0.071c9.42,0.004,18.84,0.004,28.262,0
		C402.746,223.443,403.109,223.393,403.473,223.366z"/>
	<path fill-rule="evenodd" clip-rule="evenodd" fill="#FDFDFD" d="M441.312,208.296c-0.236,0.931-0.106,1.88-0.111,2.819
		c-0.017,3.776,0.007,7.552-0.02,11.329c-0.005,0.689,0.085,1.023,0.918,1.02c9.703-0.033,19.406-0.025,29.109-0.032
		c0.103,0,0.204-0.044,0.307-0.067c-0.184,3.193-0.038,6.389-0.076,9.583c-0.02,1.572,0.004,3.145-0.012,4.717
		c-0.003,0.274,0.169,0.641-0.257,0.792c-0.001-4.248-0.001-8.496-0.003-12.744c-0.001-2.172,0.155-2-2.075-2.001
		c-8.549-0.002-17.098,0-25.646,0c-0.262,0-0.524,0.001-0.787,0c-1.723-0.009-1.729-0.009-1.73-1.721
		c-0.004-4.038-0.011-8.077,0.011-12.115C440.941,209.34,440.685,208.702,441.312,208.296z"/>
	<path fill-rule="evenodd" clip-rule="evenodd" fill="#FDFDFD" d="M282.508,223.366c-0.027,3.352-0.056,6.705-0.079,10.057
		c-0.009,1.311,0.003,2.621-0.003,3.932c-0.005,1.286-0.064,1.215,1.167,1.213c3.198-0.004,6.396,0.019,9.593-0.011
		c1.463-0.013,2.933,0.149,4.39-0.11c-0.249,0.475-0.702,0.383-1.109,0.383c-4.354,0.004-8.708,0.012-13.062-0.003
		c-1.201-0.004-1.234-0.039-1.239-1.258c-0.016-3.987-0.006-7.974-0.006-11.961c0-0.367-0.008-0.734-0.009-1.102
		c-0.001-0.506-0.233-0.783-0.758-0.783c-0.419,0-0.839-0.01-1.259-0.01c-9.286-0.001-18.571-0.002-27.857-0.003
		c-0.019-0.113-0.038-0.226-0.056-0.338c0.311,0.025,0.623,0.071,0.934,0.071c9.42,0.004,18.841,0.004,28.262,0
		C281.781,223.443,282.145,223.393,282.508,223.366z"/>
	<path fill-rule="evenodd" clip-rule="evenodd" fill="#FDFDFD" d="M33.057,4.168c-0.179,0.509-0.116,1.038-0.116,1.559
		c-0.003,14.099-0.004,28.198,0,42.296c0.001,1.735-0.209,1.549,1.468,1.527c2.04-0.027,4.083,0.144,6.119-0.111
		c-0.205,0.407-0.584,0.385-0.952,0.385c-1.941,0.001-3.882-0.023-5.823,0.01c-0.825,0.015-1.148-0.33-1.084-1.122
		c0.021-0.261,0.002-0.524,0.002-0.787c0-14.006-0.004-28.013,0.014-42.019C32.687,5.323,32.397,4.63,33.057,4.168z"/>
	<path fill-rule="evenodd" clip-rule="evenodd" fill="#FEFEFE" d="M584.957,268.778c-0.039,0.258-0.112,0.515-0.112,0.773
		c-0.007,4.454,0.017,8.909-0.025,13.362c-0.009,0.85,0.27,1.035,1.065,1.033c9.432-0.025,18.863-0.015,28.296-0.021
		c0.31,0,0.62-0.074,0.93-0.114c-0.464,0.657-1.155,0.368-1.74,0.369c-8.968,0.02-17.937,0.014-26.904,0.014
		c-0.366,0-0.733-0.008-1.101-0.009c-0.509-0.002-0.78-0.243-0.779-0.764c0-0.105-0.01-0.209-0.01-0.314
		c0-4.458-0.001-8.915-0.001-13.373C584.575,269.365,584.554,268.985,584.957,268.778z"/>
	<path fill-rule="evenodd" clip-rule="evenodd" fill="#FDFDFD" d="M161.582,41.97c-0.039,0.31-0.112,0.62-0.113,0.93
		c-0.007,6.917,0,13.833-0.012,20.749c-0.001,0.638-0.005,1.057,0.881,1.052c7.074-0.039,14.147-0.022,21.221-0.029
		c0.206,0,0.411-0.073,0.615-0.111c-0.249,0.476-0.702,0.383-1.108,0.383c-6.871,0.004-13.742,0.009-20.613-0.003
		c-1.21-0.002-1.247-0.038-1.249-1.248c-0.012-6.871-0.007-13.742-0.003-20.613C161.2,42.673,161.107,42.22,161.582,41.97z"/>
	<path fill-rule="evenodd" clip-rule="evenodd" fill="#FDFDFD" d="M206.947,155.365c-0.036,0.574-0.104,1.148-0.104,1.722
		c-0.008,6.401-0.005,12.802-0.005,19.204c0,0.314,0.017,0.63,0.001,0.944c-0.031,0.598,0.239,0.871,0.836,0.836
		c0.209-0.012,0.42,0.002,0.629,0.002c6.664,0,13.327,0.002,19.99-0.005c0.417,0,0.833-0.069,1.25-0.106
		c-0.249,0.473-0.701,0.386-1.109,0.386c-6.874,0.003-13.748,0.008-20.621-0.003c-1.212-0.002-1.247-0.037-1.249-1.248
		c-0.012-6.874-0.007-13.747-0.003-20.621C206.563,156.066,206.476,155.615,206.947,155.365z"/>
	<path fill-rule="evenodd" clip-rule="evenodd" fill="#FDFDFD" d="M70.847,178.349c0.444-0.577,1.063-0.245,1.58-0.246
		c13.943-0.024,27.887-0.018,41.831-0.023c0.625,0,1.259,0.087,1.874-0.115c-0.35,0.586-0.931,0.374-1.422,0.377
		c-2.777,0.018-5.555,0.009-8.332,0.009C94.534,178.351,82.69,178.35,70.847,178.349z"/>
	<path fill-rule="evenodd" clip-rule="evenodd" fill="#FDFDFD" d="M297.285,155.681c0.523,0.465,0.29,1.084,0.291,1.63
		c0.018,6.192,0.011,12.383,0.012,18.575c0,0.367,0.027,0.736-0.004,1.102c-0.072,0.846,0.354,1.07,1.128,1.067
		c7.188-0.03,14.376-0.039,21.564-0.053c-0.333,0.485-0.843,0.342-1.295,0.342c-6.767,0.007-13.533,0.01-20.299,0.001
		c-1.37-0.001-1.392-0.025-1.394-1.42C297.28,169.843,297.285,162.762,297.285,155.681z"/>
	<path fill-rule="evenodd" clip-rule="evenodd" fill="#FFFFFF" d="M365.7,132.987c0.446-0.571,1.063-0.243,1.581-0.244
		c13.943-0.023,27.886-0.017,41.828-0.022c0.625,0,1.26,0.087,1.874-0.116c-0.354,0.58-0.934,0.371-1.426,0.374
		c-2.986,0.018-5.974,0.009-8.96,0.009C388.965,132.987,377.333,132.987,365.7,132.987z"/>
	<path fill-rule="evenodd" clip-rule="evenodd" fill="#FDFDFD" d="M274.938,132.67c-0.022,2.033-0.059,4.067-0.063,6.101
		c-0.009,4.957-0.005,9.913,0,14.869c0.001,0.571,0.05,1.143,0.078,1.714c-0.011,0.102-0.008,0.202,0.01,0.303
		c-0.591-0.427-0.348-1.058-0.35-1.6c-0.017-6.24-0.011-12.48-0.011-18.72c0-0.262,0.002-0.524,0-0.787
		c-0.016-1.546-0.016-1.559-1.571-1.561c-6.922-0.005-13.844-0.002-20.766-0.002c-0.014-0.107-0.028-0.215-0.042-0.322
		C259.794,132.667,267.366,132.668,274.938,132.67z"/>
	<path fill-rule="evenodd" clip-rule="evenodd" fill="#FDFDFD" d="M48.094,26.805c2.535,0.12,5.071,0.127,7.606-0.006
		c-0.027,0.259-0.076,0.519-0.077,0.778c-0.004,6.92-0.001,13.84-0.005,20.76c-0.001,1.302-0.05,1.25,1.156,1.219
		c2.145-0.056,4.294,0.146,6.435-0.116c-0.298,0.535-0.817,0.376-1.266,0.38c-1.73,0.015-3.461,0.017-5.191,0.002
		c-1.372-0.012-1.393-0.025-1.396-1.42c-0.009-4.981-0.004-9.963-0.004-14.944c0-1.625,0.01-3.251-0.003-4.876
		c-0.011-1.407-0.022-1.422-1.379-1.433c-1.94-0.015-3.88-0.005-5.82-0.006C48.131,27.03,48.112,26.917,48.094,26.805z"/>
	<path fill-rule="evenodd" clip-rule="evenodd" fill="#FDFDFD" d="M494.234,193.176c-0.236,0.929-0.106,1.875-0.111,2.813
		c-0.017,3.821,0.009,7.642-0.021,11.463c-0.006,0.686,0.201,0.891,0.887,0.887c4.554-0.027,9.108-0.014,13.662-0.021
		c0.205,0,0.41-0.072,0.615-0.111c-0.25,0.475-0.702,0.382-1.108,0.383c-4.352,0.004-8.703,0.012-13.055-0.003
		c-1.21-0.004-1.244-0.038-1.248-1.248c-0.015-4.352-0.008-8.703-0.003-13.054C493.853,193.878,493.76,193.425,494.234,193.176z"/>
	<path fill-rule="evenodd" clip-rule="evenodd" fill="#FDFDFD" d="M116.209,284.193c0.388-0.549,0.952-0.249,1.421-0.25
		c8.957-0.02,17.914-0.013,26.87-0.019c0.625,0,1.258,0.088,1.872-0.115c-0.459,0.661-1.152,0.37-1.735,0.372
		c-7.539,0.021-15.078,0.014-22.617,0.014C120.083,284.195,118.146,284.194,116.209,284.193z"/>
	<path fill-rule="evenodd" clip-rule="evenodd" fill="#FEFEFE" d="M584.932,223.71c-0.02-0.112-0.038-0.225-0.058-0.338
		c0.468,0.025,0.936,0.072,1.403,0.072c9.093,0.004,18.186,0.004,27.279,0.001c0.52,0,1.047,0.064,1.554-0.117
		c-0.462,0.657-1.153,0.368-1.737,0.369c-7.856,0.021-15.714,0.014-23.57,0.014C588.179,223.711,586.556,223.71,584.932,223.71z"/>
	<path fill-rule="evenodd" clip-rule="evenodd" fill="#FDFDFD" d="M70.858,64.651c-0.04,0.413-0.113,0.826-0.113,1.239
		c-0.007,6.887-0.006,13.774-0.001,20.662c0,0.258,0.046,0.517,0.071,0.775c-0.113-0.019-0.226-0.038-0.338-0.057
		c-0.001-7.014-0.008-14.028,0.009-21.041C70.486,65.692,70.231,65.055,70.858,64.651z"/>
	<path fill-rule="evenodd" clip-rule="evenodd" fill="#FDFDFD" d="M297.614,87.314c-0.11-0.017-0.221-0.033-0.331-0.05
		c0-6.963-0.007-13.927,0.015-20.89c0.002-0.583-0.291-1.276,0.378-1.732c-0.039,0.361-0.113,0.722-0.113,1.083
		c-0.007,6.989-0.005,13.978-0.002,20.966C297.561,86.899,297.596,87.107,297.614,87.314z"/>
	<path fill-rule="evenodd" clip-rule="evenodd" fill="#FDFDFD" d="M365.709,64.651c-0.039,0.413-0.112,0.826-0.112,1.239
		c-0.007,6.887-0.006,13.774-0.002,20.662c0,0.258,0.046,0.517,0.071,0.775c-0.113-0.019-0.226-0.038-0.339-0.057
		c-0.001-7.014-0.008-14.027,0.009-21.041C365.337,65.692,365.082,65.055,365.709,64.651z"/>
	<path fill-rule="evenodd" clip-rule="evenodd" fill="#FDFDFD" d="M274.958,87.315c-0.019,3.862-0.044,7.723-0.053,11.585
		c-0.008,3.706,0.001,7.412,0.003,11.118l-0.156,0.008l-0.15-0.043c0-6.969-0.007-13.938,0.013-20.907
		C274.618,88.485,274.349,87.803,274.958,87.315z"/>
	<path fill-rule="evenodd" clip-rule="evenodd" fill="#FDFDFD" d="M297.646,87.627c-0.016-0.11-0.033-0.221-0.05-0.331
		c3.649,0.019,7.299,0.045,10.948,0.056c3.338,0.009,6.675,0.004,10.013,0c0.571-0.001,1.149,0.062,1.709-0.117
		c-0.456,0.669-1.15,0.376-1.732,0.378C311.572,87.635,304.609,87.627,297.646,87.627z"/>
	<path fill-rule="evenodd" clip-rule="evenodd" fill="#FDFDFD" d="M274.892,110.001c7.15,0.002,14.302,0.005,21.452,0.004
		c0.417,0,0.833-0.035,1.25-0.054c-0.432,0.58-1.06,0.344-1.603,0.345c-7.021,0.016-14.043,0.01-21.064,0.01
		C274.882,110.208,274.87,110.107,274.892,110.001z"/>
	<path fill-rule="evenodd" clip-rule="evenodd" fill="#FDFDFD" d="M410.987,109.968c0.937,0.025,1.874,0.07,2.81,0.071
		c6.053,0.007,12.105,0.005,18.158,0c0.57,0,1.149,0.076,1.708-0.116c-0.403,0.629-1.041,0.374-1.577,0.375
		c-7.014,0.016-14.028,0.01-21.042,0.009C411.025,110.193,411.007,110.081,410.987,109.968z"/>
	<path fill-rule="evenodd" clip-rule="evenodd" fill="#FDFDFD" d="M229.559,155.372c-0.105-0.014-0.211-0.028-0.316-0.042
		c0-6.97-0.008-13.939,0.013-20.909c0.002-0.585-0.287-1.276,0.371-1.739c-0.033,0.258-0.097,0.515-0.097,0.773
		C229.536,140.761,229.547,148.066,229.559,155.372z"/>
	<path fill-rule="evenodd" clip-rule="evenodd" fill="#FDFDFD" d="M116.136,155.33c0.937,0.024,1.873,0.069,2.81,0.07
		c6.052,0.007,12.105,0.006,18.157,0c0.571,0,1.149,0.076,1.708-0.116c-0.403,0.629-1.042,0.374-1.578,0.375
		c-7.014,0.016-14.027,0.009-21.042,0.008C116.174,155.555,116.155,155.442,116.136,155.33z"/>
	<path fill-rule="evenodd" clip-rule="evenodd" fill="#FDFDFD" d="M229.58,155.668c-0.014-0.105-0.028-0.211-0.042-0.317
		c7.305,0.011,14.61,0.023,21.915,0.03c0.258,0,0.516-0.063,0.774-0.097c-0.462,0.657-1.154,0.368-1.739,0.37
		C243.519,155.676,236.549,155.668,229.58,155.668z"/>
	<path fill-rule="evenodd" clip-rule="evenodd" fill="#FEFEFE" d="M584.914,223.412c-0.112-0.02-0.226-0.039-0.338-0.058
		c-0.001-4.495-0.01-8.989,0.01-13.484c0.002-0.536-0.25-1.172,0.374-1.576c-0.039,0.204-0.114,0.407-0.113,0.61
		C584.864,213.74,584.89,218.576,584.914,223.412z"/>
	<path fill-rule="evenodd" clip-rule="evenodd" fill="#FEFEFE" d="M615.115,268.733c4.522,0.025,9.046,0.053,13.568,0.073
		c0.518,0.002,1.043,0.063,1.548-0.117c-0.405,0.623-1.041,0.369-1.577,0.371c-4.494,0.02-8.987,0.011-13.481,0.011
		C615.153,268.959,615.135,268.847,615.115,268.733z"/>
	<path fill-rule="evenodd" clip-rule="evenodd" fill="#FDFDFD" d="M471.526,269.072c-0.019-0.113-0.038-0.226-0.057-0.339
		c5.039,0.095,10.078,0.178,15.115-0.044c-0.402,0.628-1.039,0.372-1.574,0.375C480.516,269.083,476.021,269.073,471.526,269.072z"
		/>
	<path fill-rule="evenodd" clip-rule="evenodd" fill="#FDFDFD" d="M373.27,208.296c-0.039,0.308-0.113,0.616-0.112,0.923
		c0.017,4.731,0.044,9.461,0.068,14.192c-0.112-0.019-0.226-0.038-0.338-0.057c-0.001-4.494-0.011-8.989,0.009-13.483
		C372.898,209.336,372.644,208.7,373.27,208.296z"/>
	<path fill-rule="evenodd" clip-rule="evenodd" fill="#FDFDFD" d="M214.477,269.072c-0.019-0.113-0.038-0.226-0.057-0.339
		c5.039,0.095,10.078,0.178,15.116-0.044c-0.403,0.628-1.04,0.372-1.575,0.375C223.466,269.083,218.971,269.073,214.477,269.072z"/>
	<path fill-rule="evenodd" clip-rule="evenodd" fill="#FDFDFD" d="M146.377,268.733c5.039,0.095,10.078,0.178,15.115-0.044
		c-0.402,0.628-1.039,0.372-1.575,0.375c-4.495,0.019-8.99,0.01-13.484,0.009C146.415,268.959,146.396,268.847,146.377,268.733z"/>
	<path fill-rule="evenodd" clip-rule="evenodd" fill="#FDFDFD" d="M78.408,34.704c0.331-0.513,0.844-0.247,1.261-0.25
		c4.023-0.024,8.047-0.012,12.07-0.018c0.572-0.001,1.152,0.076,1.711-0.116c-0.402,0.627-1.038,0.372-1.573,0.374
		C87.388,34.714,82.897,34.705,78.408,34.704z"/>
	<path fill-rule="evenodd" clip-rule="evenodd" fill="#FDFDFD" d="M252.305,208.296c-0.039,0.308-0.114,0.616-0.113,0.923
		c0.017,4.731,0.044,9.461,0.069,14.192c-0.113-0.019-0.226-0.038-0.338-0.057c-0.001-4.494-0.01-8.989,0.009-13.483
		C251.934,209.336,251.679,208.699,252.305,208.296z"/>
	<path fill-rule="evenodd" clip-rule="evenodd" fill="#FDFDFD" d="M184.262,208.296c-0.039,0.308-0.113,0.616-0.112,0.923
		c0.017,4.731,0.044,9.461,0.069,14.192c-0.113-0.019-0.226-0.038-0.338-0.057c-0.001-4.494-0.011-8.989,0.009-13.483
		C183.892,209.336,183.636,208.699,184.262,208.296z"/>
	<path fill-rule="evenodd" clip-rule="evenodd" fill="#FDFDFD" d="M116.22,208.296c-0.039,0.308-0.113,0.616-0.113,0.923
		c0.018,4.731,0.044,9.461,0.069,14.192c-0.112-0.019-0.226-0.038-0.338-0.057c-0.001-4.494-0.011-8.989,0.008-13.483
		C115.849,209.336,115.593,208.699,116.22,208.296z"/>
	<path fill-rule="evenodd" clip-rule="evenodd" fill="#FDFDFD" d="M441.269,253.653c-0.113-0.019-0.226-0.038-0.338-0.057
		c-0.002-4.496-0.011-8.991,0.008-13.486c0.003-0.536-0.252-1.173,0.377-1.574c-0.039,0.203-0.114,0.407-0.113,0.61
		C441.22,243.982,441.245,248.817,441.269,253.653z"/>
	<path fill-rule="evenodd" clip-rule="evenodd" fill="#FEFEFE" d="M532.035,193.175c-0.191,0.56-0.114,1.139-0.115,1.711
		c-0.006,4.022,0.007,8.046-0.018,12.069c-0.003,0.416,0.261,0.929-0.249,1.261c0-4.489-0.01-8.978,0.011-13.466
		C531.666,194.215,531.414,193.58,532.035,193.175z"/>
	<path fill-rule="evenodd" clip-rule="evenodd" fill="#FDFDFD" d="M320.348,193.176c-0.19,0.56-0.114,1.14-0.115,1.711
		c-0.006,4.023,0.006,8.047-0.018,12.07c-0.002,0.416,0.263,0.93-0.25,1.26c0-4.489-0.01-8.979,0.009-13.468
		C319.977,194.214,319.722,193.579,320.348,193.176z"/>
	<path fill-rule="evenodd" clip-rule="evenodd" fill="#FDFDFD" d="M335.457,223.711c0.331-0.514,0.845-0.248,1.261-0.25
		c4.023-0.024,8.047-0.012,12.071-0.018c0.571-0.001,1.151,0.076,1.711-0.116c-0.401,0.628-1.038,0.372-1.572,0.375
		C344.438,223.721,339.947,223.712,335.457,223.711z"/>
	<path fill-rule="evenodd" clip-rule="evenodd" fill="#FEFEFE" d="M547.146,223.71c0.332-0.51,0.845-0.246,1.262-0.249
		c4.022-0.024,8.046-0.012,12.069-0.018c0.571-0.001,1.151,0.077,1.711-0.116c-0.404,0.623-1.039,0.37-1.574,0.372
		C556.124,223.719,551.636,223.71,547.146,223.71z"/>
	<path fill-rule="evenodd" clip-rule="evenodd" fill="#FDFDFD" d="M40.606,34.704c0.328-0.512,0.837-0.232,1.254-0.251
		c2.074-0.093,4.156,0.124,6.228-0.132c-0.345,0.582-0.92,0.372-1.408,0.376C44.656,34.717,42.631,34.705,40.606,34.704z"/>
	<path fill-rule="evenodd" clip-rule="evenodd" fill="#FDFDFD" d="M93.456,26.805c2.519,0.093,5.038,0.181,7.555-0.044
		c-0.347,0.582-0.923,0.372-1.411,0.376c-2.029,0.02-4.059,0.007-6.088,0.006C93.493,27.03,93.474,26.917,93.456,26.805z"/>
	<path fill-rule="evenodd" clip-rule="evenodd" fill="#FDFDFD" d="M48.177,19.289c-0.223,2.517-0.137,5.036-0.043,7.555
		c-0.113-0.019-0.226-0.038-0.338-0.057c-0.001-2.029-0.014-4.058,0.006-6.087C47.806,20.212,47.596,19.636,48.177,19.289z"/>
	<path fill-rule="evenodd" clip-rule="evenodd" fill="#FDFDFD" d="M17.925,19.583c0.329-0.513,0.837-0.233,1.254-0.252
		c2.075-0.093,4.156,0.124,6.228-0.132c-0.345,0.582-0.92,0.372-1.408,0.377C21.975,19.597,19.95,19.584,17.925,19.583z"/>
	<path fill-rule="evenodd" clip-rule="evenodd" fill="#FDFDFD" d="M78.418,11.729c-0.223,2.518-0.137,5.037-0.044,7.555
		c-0.113-0.019-0.226-0.037-0.338-0.057c-0.001-2.029-0.014-4.058,0.006-6.087C78.047,12.652,77.837,12.076,78.418,11.729z"/>
	<path fill-rule="evenodd" clip-rule="evenodd" fill="#FDFDFD" d="M10.376,4.168c-0.254,2.072-0.039,4.153-0.131,6.228
		c-0.019,0.417,0.261,0.926-0.251,1.254C9.992,9.625,9.979,7.601,10,5.577C10.005,5.089,9.795,4.514,10.376,4.168z"/>
</g>
</svg>
